<svg width="193" height="51" viewBox="0 0 193 51" fill="none" xmlns="http://www.w3.org/2000/svg">
<path d="M69.1396 21L68.1187 17.9038H63.7109L62.6899 21H60.4819L64.7319 9.02197H67.1475L71.3975 21H69.1396ZM65.8857 11.1387L64.209 16.252H67.6123L65.9438 11.1387H65.8857ZM83.7158 12.2012L81.3335 21H79.1587L77.4238 14.5669H77.3823L75.6558 21H73.4976L71.1152 12.2012H73.1904L74.6763 18.958H74.7178L76.436 12.2012H78.4199L80.1382 18.958H80.188L81.6738 12.2012H83.7158ZM88.4556 13.6206C87.88 13.6206 87.3986 13.8198 87.0112 14.2183C86.6294 14.6112 86.4163 15.1175 86.3721 15.7373H90.481C90.4588 15.112 90.2624 14.6029 89.8916 14.21C89.5208 13.8171 89.0422 13.6206 88.4556 13.6206ZM90.4893 18.3687H92.4233C92.2905 19.2043 91.8672 19.8822 91.1533 20.4023C90.4395 20.917 89.5651 21.1743 88.5303 21.1743C87.2132 21.1743 86.1784 20.7703 85.4258 19.9624C84.6732 19.1489 84.2969 18.0394 84.2969 16.6338C84.2969 15.2393 84.6704 14.1214 85.4175 13.2803C86.1701 12.4391 87.18 12.0186 88.4473 12.0186C89.6924 12.0186 90.6802 12.4198 91.4106 13.2222C92.1411 14.019 92.5063 15.0871 92.5063 16.4263V17.0986H86.3555V17.2231C86.3555 17.9315 86.5547 18.5015 86.9531 18.9331C87.3571 19.3647 87.8966 19.5806 88.5718 19.5806C89.0477 19.5806 89.4572 19.4727 89.8003 19.2568C90.1489 19.0355 90.3786 18.7394 90.4893 18.3687ZM93.6851 14.7246C93.6851 13.9167 94.0116 13.2637 94.6646 12.7656C95.3175 12.2676 96.1781 12.0186 97.2461 12.0186C98.2754 12.0186 99.111 12.2731 99.7529 12.7822C100.4 13.2858 100.738 13.9443 100.766 14.7578H98.8398C98.8066 14.376 98.6462 14.0771 98.3584 13.8613C98.0706 13.6455 97.686 13.5376 97.2046 13.5376C96.7508 13.5376 96.3856 13.6372 96.1089 13.8364C95.8322 14.0301 95.6938 14.2874 95.6938 14.6084C95.6938 15.0954 96.1144 15.4412 96.9556 15.646L98.5244 15.9946C99.4043 16.1994 100.032 16.4871 100.409 16.8579C100.785 17.2287 100.973 17.7406 100.973 18.3936C100.973 19.2236 100.625 19.896 99.9272 20.4106C99.23 20.9198 98.3252 21.1743 97.2129 21.1743C96.1172 21.1743 95.2345 20.9253 94.5649 20.4272C93.9009 19.9237 93.5329 19.2513 93.4609 18.4102H95.4946C95.5555 18.8141 95.7381 19.124 96.0425 19.3398C96.3524 19.5557 96.7674 19.6636 97.2876 19.6636C97.7912 19.6636 98.1868 19.5695 98.4746 19.3813C98.7679 19.1877 98.9146 18.9276 98.9146 18.6011C98.9146 18.3465 98.8232 18.1445 98.6406 17.9951C98.4635 17.8402 98.1619 17.7074 97.7358 17.5967L96.1338 17.2231C94.5013 16.8413 93.6851 16.0085 93.6851 14.7246ZM109.291 19.9541C108.521 20.7676 107.486 21.1743 106.186 21.1743C104.886 21.1743 103.851 20.7676 103.082 19.9541C102.312 19.1351 101.928 18.0173 101.928 16.6006C101.928 15.1895 102.315 14.0744 103.09 13.2554C103.865 12.4308 104.897 12.0186 106.186 12.0186C107.481 12.0186 108.513 12.4308 109.282 13.2554C110.057 14.0744 110.444 15.1895 110.444 16.6006C110.444 18.0173 110.06 19.1351 109.291 19.9541ZM104.609 18.7671C104.996 19.2817 105.522 19.5391 106.186 19.5391C106.85 19.5391 107.376 19.2817 107.763 18.7671C108.151 18.2524 108.344 17.5303 108.344 16.6006C108.344 15.6764 108.151 14.957 107.763 14.4424C107.376 13.9222 106.85 13.6621 106.186 13.6621C105.528 13.6621 105.002 13.9222 104.609 14.4424C104.222 14.957 104.028 15.6764 104.028 16.6006C104.028 17.5303 104.222 18.2524 104.609 18.7671ZM111.772 21V12.2012H113.756V13.7285H113.798C113.992 13.2083 114.31 12.7961 114.752 12.4917C115.195 12.1873 115.713 12.0352 116.305 12.0352C116.924 12.0352 117.447 12.1901 117.874 12.5C118.305 12.8044 118.601 13.2388 118.762 13.8032H118.812C119.022 13.2609 119.37 12.832 119.857 12.5166C120.35 12.1956 120.914 12.0352 121.551 12.0352C122.42 12.0352 123.114 12.3035 123.634 12.8403C124.16 13.3771 124.423 14.0854 124.423 14.9653V21H122.356V15.4717C122.356 14.9294 122.218 14.5116 121.941 14.2183C121.67 13.925 121.282 13.7783 120.779 13.7783C120.281 13.7783 119.877 13.9443 119.567 14.2764C119.257 14.6084 119.102 15.0373 119.102 15.563V21H117.093V15.3638C117.093 14.8768 116.952 14.4922 116.67 14.21C116.393 13.9222 116.014 13.7783 115.533 13.7783C115.035 13.7783 114.628 13.9526 114.312 14.3013C113.997 14.6444 113.839 15.0815 113.839 15.6128V21H111.772ZM129.876 13.6206C129.301 13.6206 128.819 13.8198 128.432 14.2183C128.05 14.6112 127.837 15.1175 127.793 15.7373H131.902C131.88 15.112 131.683 14.6029 131.312 14.21C130.942 13.8171 130.463 13.6206 129.876 13.6206ZM131.91 18.3687H133.844C133.711 19.2043 133.288 19.8822 132.574 20.4023C131.86 20.917 130.986 21.1743 129.951 21.1743C128.634 21.1743 127.599 20.7703 126.847 19.9624C126.094 19.1489 125.718 18.0394 125.718 16.6338C125.718 15.2393 126.091 14.1214 126.838 13.2803C127.591 12.4391 128.601 12.0186 129.868 12.0186C131.113 12.0186 132.101 12.4198 132.832 13.2222C133.562 14.019 133.927 15.0871 133.927 16.4263V17.0986H127.776V17.2231C127.776 17.9315 127.976 18.5015 128.374 18.9331C128.778 19.3647 129.318 19.5806 129.993 19.5806C130.469 19.5806 130.878 19.4727 131.221 19.2568C131.57 19.0355 131.799 18.7394 131.91 18.3687Z" fill="black"/>
<path d="M60.8306 37.6631H62.665C62.7979 38.8501 63.9517 39.6304 65.5288 39.6304C67.0396 39.6304 68.127 38.8501 68.127 37.7793C68.127 36.8496 67.4712 36.2935 65.9189 35.9116L64.3667 35.5381C62.167 35.0068 61.146 33.9775 61.146 32.3091C61.146 30.2422 62.9473 28.8228 65.5039 28.8228C68.0356 28.8228 69.7705 30.2422 69.8286 32.3091H68.019C67.9111 31.1138 66.9233 30.3916 65.479 30.3916C64.0347 30.3916 63.0469 31.1221 63.0469 32.1846C63.0469 33.0312 63.6777 33.5293 65.2217 33.9111L66.5415 34.2349C68.9985 34.8159 70.0195 35.8037 70.0195 37.5552C70.0195 39.7964 68.2349 41.1992 65.396 41.1992C62.7397 41.1992 60.9468 39.8296 60.8306 37.6631ZM75.1245 33.5542C73.8711 33.5542 72.9912 34.5088 72.8999 35.8286H77.2661C77.2246 34.4922 76.3779 33.5542 75.1245 33.5542ZM77.2578 38.4351H78.9595C78.7104 40.0288 77.1997 41.166 75.1992 41.166C72.6343 41.166 71.082 39.4312 71.082 36.6753C71.082 33.936 72.6592 32.1099 75.1245 32.1099C77.5483 32.1099 79.0591 33.8198 79.0591 36.4678V37.082H72.8916V37.1899C72.8916 38.709 73.8047 39.7134 75.2407 39.7134C76.2617 39.7134 77.0171 39.1987 77.2578 38.4351ZM80.4536 41V32.2676H82.1636V33.7368H82.2051C82.5952 32.7656 83.5083 32.1182 84.687 32.1182C85.8989 32.1182 86.7788 32.7407 87.1274 33.8281H87.1689C87.6172 32.7656 88.6465 32.1182 89.8916 32.1182C91.6182 32.1182 92.7471 33.2637 92.7471 34.9985V41H90.9458V35.4302C90.9458 34.3013 90.3398 33.6538 89.2773 33.6538C88.2148 33.6538 87.4761 34.4424 87.4761 35.5464V41H85.7163V35.2974C85.7163 34.293 85.0771 33.6538 84.0645 33.6538C83.002 33.6538 82.2466 34.4839 82.2466 35.6045V41H80.4536ZM97.5366 39.73C98.79 39.73 99.7695 38.8667 99.7695 37.7295V37.0405L97.6196 37.1733C96.5488 37.248 95.9429 37.7212 95.9429 38.4683C95.9429 39.2319 96.5737 39.73 97.5366 39.73ZM97.0386 41.1494C95.3286 41.1494 94.1333 40.0869 94.1333 38.5181C94.1333 36.9907 95.3037 36.0527 97.3789 35.9365L99.7695 35.7954V35.123C99.7695 34.1519 99.1138 33.5708 98.0181 33.5708C96.9805 33.5708 96.333 34.0688 96.1753 34.8491H94.4819C94.5815 33.272 95.9263 32.1099 98.0845 32.1099C100.201 32.1099 101.554 33.2305 101.554 34.9819V41H99.8359V39.564H99.7944C99.2881 40.5352 98.1841 41.1494 97.0386 41.1494ZM103.297 41V32.2676H105.007V33.7285H105.049C105.522 32.7324 106.452 32.1182 107.796 32.1182C109.722 32.1182 110.826 33.3467 110.826 35.3472V41H109.025V35.6958C109.025 34.3843 108.411 33.6621 107.166 33.6621C105.904 33.6621 105.09 34.5586 105.09 35.9116V41H103.297ZM113.084 30.2007H114.885V32.2676H116.545V33.687H114.885V38.5015C114.885 39.2568 115.217 39.5972 115.948 39.5972C116.13 39.5972 116.421 39.5806 116.537 39.5557V40.9751C116.338 41.0249 115.939 41.0581 115.541 41.0581C113.773 41.0581 113.084 40.3857 113.084 38.7007V33.687H111.814V32.2676H113.084V30.2007ZM118.081 41V32.2676H119.874V41H118.081ZM118.978 30.9893C118.405 30.9893 117.94 30.5327 117.94 29.9683C117.94 29.3955 118.405 28.939 118.978 28.939C119.559 28.939 120.023 29.3955 120.023 29.9683C120.023 30.5327 119.559 30.9893 118.978 30.9893ZM129.204 35.2725H127.494C127.312 34.3428 126.614 33.604 125.444 33.604C124.058 33.604 123.145 34.7578 123.145 36.6338C123.145 38.5513 124.066 39.6636 125.46 39.6636C126.564 39.6636 127.287 39.0576 127.494 38.0449H129.221C129.03 39.9043 127.544 41.166 125.444 41.166C122.945 41.166 121.318 39.4561 121.318 36.6338C121.318 33.8613 122.945 32.1099 125.427 32.1099C127.677 32.1099 129.046 33.5542 129.204 35.2725ZM139.215 41.1992C135.853 41.1992 133.728 38.8252 133.728 35.0068C133.728 31.2134 135.87 28.8228 139.215 28.8228C141.929 28.8228 143.979 30.4912 144.295 32.9897H142.452C142.12 31.4541 140.842 30.4497 139.215 30.4497C137.04 30.4497 135.629 32.2344 135.629 35.0068C135.629 37.8042 137.023 39.5723 139.223 39.5723C140.892 39.5723 142.079 38.7173 142.452 37.2729H144.303C143.847 39.7466 141.971 41.1992 139.215 41.1992ZM149.516 41.166C147.018 41.166 145.374 39.4478 145.374 36.6338C145.374 33.8281 147.026 32.1099 149.516 32.1099C152.006 32.1099 153.658 33.8281 153.658 36.6338C153.658 39.4478 152.015 41.166 149.516 41.166ZM149.516 39.6885C150.927 39.6885 151.832 38.5762 151.832 36.6338C151.832 34.6997 150.919 33.5874 149.516 33.5874C148.113 33.5874 147.2 34.6997 147.2 36.6338C147.2 38.5762 148.113 39.6885 149.516 39.6885ZM155.044 41V32.2676H156.754V33.7368H156.796C157.186 32.7656 158.099 32.1182 159.278 32.1182C160.49 32.1182 161.37 32.7407 161.718 33.8281H161.76C162.208 32.7656 163.237 32.1182 164.482 32.1182C166.209 32.1182 167.338 33.2637 167.338 34.9985V41H165.537V35.4302C165.537 34.3013 164.931 33.6538 163.868 33.6538C162.806 33.6538 162.067 34.4424 162.067 35.5464V41H160.307V35.2974C160.307 34.293 159.668 33.6538 158.655 33.6538C157.593 33.6538 156.837 34.4839 156.837 35.6045V41H155.044ZM169.073 41V32.2676H170.783V33.7368H170.824C171.214 32.7656 172.127 32.1182 173.306 32.1182C174.518 32.1182 175.398 32.7407 175.747 33.8281H175.788C176.236 32.7656 177.266 32.1182 178.511 32.1182C180.237 32.1182 181.366 33.2637 181.366 34.9985V41H179.565V35.4302C179.565 34.3013 178.959 33.6538 177.896 33.6538C176.834 33.6538 176.095 34.4424 176.095 35.5464V41H174.335V35.2974C174.335 34.293 173.696 33.6538 172.684 33.6538C171.621 33.6538 170.866 34.4839 170.866 35.6045V41H169.073ZM183.159 41V32.2676H184.952V41H183.159ZM184.056 30.9893C183.483 30.9893 183.018 30.5327 183.018 29.9683C183.018 29.3955 183.483 28.939 184.056 28.939C184.637 28.939 185.102 29.3955 185.102 29.9683C185.102 30.5327 184.637 30.9893 184.056 30.9893ZM187.31 30.2007H189.111V32.2676H190.771V33.687H189.111V38.5015C189.111 39.2568 189.443 39.5972 190.173 39.5972C190.356 39.5972 190.646 39.5806 190.763 39.5557V40.9751C190.563 41.0249 190.165 41.0581 189.767 41.0581C187.999 41.0581 187.31 40.3857 187.31 38.7007V33.687H186.04V32.2676H187.31V30.2007Z" fill="black"/>
<path d="M44.7412 0H5.51604C2.46962 0 0 2.46962 0 5.51604V44.7412C0 47.7876 2.46962 50.2573 5.51604 50.2573H44.7412C47.7876 50.2573 50.2573 47.7876 50.2573 44.7412V5.51604C50.2573 2.46962 47.7876 0 44.7412 0Z" fill="url(#paint0_linear_3023_1752)"/>
<g clip-path="url(#clip0_3023_1752)">
<path d="M34.174 16.4902C34.241 16.4902 34.308 16.4902 34.379 16.5044C35.2177 17.255 36.0518 17.9921 36.8873 18.7276C37.5626 19.3221 38.2421 19.912 38.9151 20.5089C39.9795 21.4531 41.04 22.4014 42.1021 23.3481C42.652 23.8383 43.2 24.3305 43.7548 24.8156C43.8061 24.8604 43.9 24.8596 43.9742 24.88C43.9742 27.1104 43.9742 29.3408 43.9564 31.5783C43.9073 31.6437 43.8663 31.6989 43.8461 31.7606C43.5515 32.6589 43.0289 33.4062 42.2697 33.9973C41.4115 34.6654 40.4364 35.0707 39.3456 35.2196C39.3129 35.224 39.29 35.2961 39.2626 35.3367C36.6646 35.3367 34.0667 35.3367 31.4618 35.3181C31.4034 35.2712 31.3544 35.2238 31.3003 35.2175C30.4287 35.1162 29.6257 34.8226 28.9003 34.357C27.4144 33.4033 26.587 32.097 26.6344 30.3224C26.6608 29.3309 26.6389 28.3382 26.6387 27.346C26.6387 27.2386 26.6387 27.1311 26.6387 27.0233C25.6115 27.0233 24.624 27.0233 23.6161 27.0233C23.6161 27.1831 23.618 27.3233 23.6158 27.4634C23.5957 28.7249 23.6109 29.9882 23.541 31.247C23.497 32.0395 23.1059 32.7354 22.5699 33.3306C21.6129 34.3932 20.4048 35.0238 18.9567 35.2174C18.9148 35.223 18.8824 35.2954 18.8456 35.3367C16.2476 35.3367 13.6497 35.3367 11.044 35.3175C10.9949 35.271 10.9562 35.2251 10.9117 35.219C10.1114 35.1103 9.36545 34.8591 8.67241 34.4536C7.5657 33.8061 6.74895 32.9394 6.40395 31.704C6.39459 31.6705 6.32354 31.6531 6.28125 31.6282C6.28125 29.418 6.28125 27.2079 6.30356 24.9712C6.62114 24.695 6.92022 24.4495 7.21091 24.195C7.9265 23.5685 8.63899 22.9387 9.35135 22.3088C10.3323 21.4414 11.3141 20.5748 12.2914 19.7036C12.9336 19.1311 13.5653 18.5476 14.2081 17.9757C14.5274 17.6916 14.8685 17.4304 15.1855 17.144C15.4127 16.9388 15.6161 16.709 15.8301 16.4902C15.8971 16.4902 15.9641 16.4902 16.0332 16.5022C16.4667 16.9796 16.8982 17.4451 17.3463 17.9285C17.0656 18.1699 16.8155 18.3812 16.5698 18.5971C15.8624 19.2185 15.1561 19.8413 14.4504 20.4646C13.4687 21.3318 12.486 22.1981 11.5072 23.0684C10.7996 23.6977 10.0976 24.333 9.37069 24.9857C19.8817 24.9857 30.3699 24.9857 40.8793 24.9857C40.8528 24.9452 40.8424 24.918 40.8227 24.9007C39.776 23.9858 38.7252 23.0751 37.6823 22.1561C37.0596 21.6075 36.4496 21.0455 35.8327 20.4907C35.551 20.2374 35.2685 19.9849 34.9829 19.7356C34.297 19.1369 33.609 18.5403 32.9027 17.9262C33.2084 17.613 33.5007 17.3284 33.774 17.0275C33.9239 16.8625 34.0417 16.6702 34.174 16.4902ZM16.8453 28.9825C16.4099 28.1479 15.6981 27.7339 14.7453 27.8045C13.6756 27.8836 13.0564 28.5197 12.7759 29.4976C11.9146 29.4976 11.0673 29.4964 10.2201 29.4983C9.93073 29.499 9.72771 29.7229 9.81156 29.959C9.89497 30.1939 10.0766 30.2955 10.3385 30.2932C11.071 30.2866 11.8038 30.2974 12.5362 30.2882C12.7309 30.2857 12.8252 30.3333 12.8803 30.5299C13.0147 31.0098 13.3356 31.3732 13.7643 31.6311C14.9605 32.3507 16.5072 31.8153 16.9597 30.5048C17.0156 30.3428 17.0911 30.2879 17.2652 30.2898C17.9977 30.2977 18.7304 30.2945 19.4631 30.2901C19.7893 30.2882 20.0315 30.1196 20.0402 29.9032C20.0513 29.6273 19.8738 29.4972 19.484 29.4971C18.7514 29.497 18.0187 29.492 17.2862 29.5016C17.1019 29.5041 16.9915 29.4624 16.9612 29.2739C16.9472 29.1867 16.906 29.1035 16.8453 28.9825ZM36.5366 28.1537C35.3942 27.3514 33.5963 27.8835 33.1838 29.4973C32.3417 29.4973 31.4953 29.5004 30.6488 29.4954C30.39 29.4939 30.2207 29.5851 30.2146 29.8502C30.2089 30.0954 30.3759 30.2328 30.6571 30.2333C31.4102 30.2348 32.1634 30.2409 32.9162 30.2294C33.1146 30.2264 33.241 30.2851 33.2841 30.4667C33.4918 31.3407 34.5429 32.0135 35.4592 31.9477C36.2769 31.889 37.1794 31.2704 37.3731 30.4937C37.4265 30.2795 37.5198 30.2275 37.7283 30.2302C38.4813 30.24 39.2344 30.236 39.9874 30.2333C40.2815 30.2323 40.4542 30.0904 40.4527 29.8644C40.4511 29.6308 40.286 29.4975 39.9945 29.4972C39.2205 29.4966 38.4465 29.4923 37.6726 29.5003C37.511 29.5019 37.4244 29.4543 37.3865 29.3032C37.2667 28.8259 36.9687 28.4645 36.5366 28.1537Z" fill="white"/>
</g>
<defs>
<linearGradient id="paint0_linear_3023_1752" x1="25.1286" y1="0" x2="25.1286" y2="50.2573" gradientUnits="userSpaceOnUse">
<stop stop-color="#637AFA"/>
<stop offset="1" stop-color="#405CF6"/>
</linearGradient>
<clipPath id="clip0_3023_1752">
<rect width="37.6929" height="19.6317" fill="white" transform="translate(6.28125 15.7051)"/>
</clipPath>
</defs>
</svg>
