<svg width="50" height="50" viewBox="0 0 50 50" fill="none" xmlns="http://www.w3.org/2000/svg">
<path d="M44.5122 0H5.4878C2.45697 0 0 2.45697 0 5.48781V44.5122C0 47.543 2.45697 50 5.4878 50H44.5122C47.543 50 50 47.543 50 44.5122V5.48781C50 2.45697 47.543 0 44.5122 0Z" fill="url(#paint0_linear_2961_2336)"/>
<g clip-path="url(#clip0_2961_2336)">
<path d="M34 16.4062C34.0667 16.4063 34.1333 16.4063 34.204 16.4204C35.0384 17.1671 35.8682 17.9004 36.6994 18.6322C37.3712 19.2236 38.0473 19.8105 38.7168 20.4043C39.7758 21.3437 40.8308 22.2872 41.8875 23.229C42.4346 23.7167 42.9798 24.2064 43.5317 24.689C43.5828 24.7336 43.6762 24.7328 43.75 24.753C43.75 26.972 43.75 29.191 43.7323 31.4171C43.6834 31.4821 43.6426 31.5371 43.6225 31.5985C43.3294 32.4922 42.8096 33.2356 42.0542 33.8237C41.2004 34.4884 40.2304 34.8916 39.1451 35.0397C39.1126 35.0442 39.0898 35.1159 39.0625 35.1562C36.4779 35.1562 33.8932 35.1562 31.3017 35.1377C31.2436 35.0911 31.1948 35.0439 31.1409 35.0377C30.2739 34.9369 29.4749 34.6448 28.7533 34.1816C27.275 33.2327 26.4518 31.9331 26.4989 30.1676C26.5253 29.1812 26.5034 28.1936 26.5033 27.2064C26.5033 27.0996 26.5033 26.9927 26.5033 26.8854C25.4813 26.8854 24.4989 26.8854 23.4961 26.8854C23.4961 27.0444 23.498 27.1839 23.4958 27.3233C23.4758 28.5783 23.4909 29.8351 23.4214 31.0875C23.3776 31.8759 22.9885 32.5683 22.4553 33.1604C21.5032 34.2176 20.3013 34.8449 18.8606 35.0376C18.8189 35.0431 18.7866 35.1152 18.75 35.1562C16.1654 35.1562 13.5807 35.1562 10.9884 35.1372C10.9395 35.0909 10.901 35.0452 10.8568 35.0392C10.0606 34.931 9.31841 34.6811 8.62892 34.2777C7.52788 33.6335 6.7153 32.7712 6.37207 31.5422C6.36276 31.5088 6.29207 31.4915 6.25 31.4667C6.25 29.2679 6.25 27.069 6.2722 24.8438C6.58815 24.569 6.8857 24.3248 7.1749 24.0716C7.88683 23.4483 8.59567 22.8217 9.30438 22.195C10.2803 21.332 11.2571 20.47 12.2294 19.6032C12.8683 19.0336 13.4968 18.4531 14.1362 17.8842C14.4539 17.6015 14.7933 17.3416 15.1087 17.0567C15.3347 16.8525 15.5371 16.6239 15.75 16.4063C15.8167 16.4063 15.8833 16.4063 15.952 16.4181C16.3833 16.8931 16.8126 17.3562 17.2584 17.8371C16.9791 18.0773 16.7304 18.2875 16.4859 18.5023C15.7821 19.1206 15.0794 19.7401 14.3774 20.3603C13.4006 21.223 12.423 22.0849 11.4492 22.9508C10.7452 23.5768 10.0468 24.2089 9.32363 24.8582C19.7809 24.8582 30.2154 24.8582 40.671 24.8582C40.6446 24.8179 40.6342 24.7908 40.6146 24.7737C39.5733 23.8634 38.5279 22.9574 37.4903 22.0432C36.8708 21.4974 36.2639 20.9382 35.6502 20.3863C35.37 20.1342 35.0888 19.883 34.8047 19.635C34.1223 19.0394 33.4379 18.4458 32.7352 17.8349C33.0393 17.5233 33.3301 17.2401 33.6021 16.9408C33.7512 16.7766 33.8684 16.5853 34 16.4062ZM16.76 28.8346C16.3268 28.0043 15.6187 27.5924 14.6707 27.6626C13.6065 27.7413 12.9905 28.3742 12.7114 29.3471C11.8545 29.3471 11.0116 29.3458 10.1686 29.3477C9.8808 29.3484 9.67882 29.5711 9.76224 29.8061C9.84522 30.0398 10.0259 30.1409 10.2865 30.1385C11.0153 30.132 11.7442 30.1427 12.473 30.1335C12.6666 30.1311 12.7605 30.1784 12.8153 30.3741C12.9489 30.8515 13.2682 31.2131 13.6947 31.4696C14.8848 32.1855 16.4236 31.6528 16.8738 30.3491C16.9294 30.1879 17.0045 30.1333 17.1777 30.1352C17.9065 30.143 18.6355 30.1399 19.3643 30.1355C19.689 30.1336 19.9299 29.9659 19.9385 29.7505C19.9495 29.4761 19.773 29.3467 19.3852 29.3466C18.6563 29.3464 17.9274 29.3414 17.1986 29.351C17.0152 29.3535 16.9054 29.312 16.8753 29.1245C16.8613 29.0377 16.8204 28.955 16.76 28.8346ZM36.3505 28.01C35.214 27.2118 33.4253 27.7412 33.0149 29.3467C32.1771 29.3467 31.335 29.3498 30.4929 29.3448C30.2353 29.3433 30.0669 29.4341 30.0608 29.6978C30.0552 29.9417 30.2213 30.0784 30.5011 30.079C31.2503 30.0805 31.9996 30.0865 32.7487 30.0751C32.946 30.0721 33.0717 30.1305 33.1147 30.3111C33.3213 31.1807 34.367 31.85 35.2786 31.7846C36.0921 31.7262 36.99 31.1108 37.1827 30.3381C37.2358 30.125 37.3286 30.0732 37.5361 30.0759C38.2852 30.0856 39.0345 30.0816 39.7837 30.079C40.0762 30.078 40.248 29.9368 40.2465 29.712C40.245 29.4796 40.0807 29.3469 39.7907 29.3467C39.0207 29.346 38.2506 29.3417 37.4807 29.3497C37.3199 29.3514 37.2337 29.3039 37.196 29.1536C37.0768 28.6788 36.7804 28.3192 36.3505 28.01Z" fill="white"/>
</g>
<defs>
<linearGradient id="paint0_linear_2961_2336" x1="25" y1="0" x2="25" y2="50" gradientUnits="userSpaceOnUse">
<stop stop-color="#637AFA"/>
<stop offset="1" stop-color="#405CF6"/>
</linearGradient>
<clipPath id="clip0_2961_2336">
<rect width="37.5" height="19.5312" fill="white" transform="translate(6.25 15.625)"/>
</clipPath>
</defs>
</svg>
