<svg width="284" height="318" viewBox="0 0 284 318" fill="none" xmlns="http://www.w3.org/2000/svg">
<rect x="3.5" y="3.5" width="277" height="311" rx="11.5" fill="white"/>
<rect x="3.5" y="3.5" width="277" height="311" rx="11.5" stroke="url(#paint0_linear_3218_1716)" stroke-width="7"/>
<rect x="7" y="202.691" width="270" height="7" fill="url(#paint1_linear_3218_1716)"/>
<path d="M173.091 30H110.908C106.079 30 102.164 33.916 102.164 38.7466V100.945C102.164 105.775 106.079 109.691 110.908 109.691H173.091C177.92 109.691 181.835 105.775 181.835 100.945V38.7466C181.835 33.916 177.92 30 173.091 30Z" fill="url(#paint2_linear_3218_1716)"/>
<mask id="mask0_3218_1716" style="mask-type:luminance" maskUnits="userSpaceOnUse" x="112" y="54" width="60" height="33">
<path d="M171.87 54.9033H112.117V86.0328H171.87V54.9033Z" fill="white"/>
</mask>
<g mask="url(#mask0_3218_1716)">
<path d="M156.335 56.1494C156.441 56.1494 156.547 56.1494 156.66 56.1719C157.989 57.3621 159.311 58.5309 160.636 59.6972C161.706 60.6398 162.784 61.5752 163.85 62.5217C165.538 64.0189 167.219 65.5226 168.903 67.0237C169.774 67.801 170.643 68.5816 171.523 69.3507C171.604 69.4217 171.753 69.4204 171.87 69.4528C171.87 72.9895 171.87 76.5261 171.842 80.0741C171.764 80.1778 171.699 80.2654 171.667 80.3632C171.2 81.7877 170.372 82.9725 169.168 83.9098C167.808 84.9693 166.262 85.6119 164.533 85.8479C164.481 85.8551 164.445 85.9694 164.401 86.0337C160.283 86.0337 156.164 86.0337 152.035 86.0042C151.942 85.9298 151.865 85.8547 151.779 85.8447C150.397 85.6841 149.124 85.2185 147.974 84.4803C145.619 82.968 144.307 80.8965 144.382 78.0827C144.424 76.5105 144.389 74.9364 144.389 73.3631C144.389 73.1928 144.389 73.0224 144.389 72.8514C142.761 72.8514 141.195 72.8514 139.597 72.8514C139.597 73.1047 139.601 73.3271 139.597 73.5493C139.565 75.5495 139.589 77.5526 139.478 79.5488C139.409 80.8055 138.789 81.9089 137.939 82.8527C136.422 84.5377 134.507 85.5375 132.211 85.8445C132.145 85.8535 132.093 85.9682 132.035 86.0337C127.916 86.0337 123.798 86.0337 119.667 86.0033C119.589 85.9295 119.528 85.8567 119.458 85.8471C118.189 85.6747 117.006 85.2764 115.908 84.6334C114.153 83.6067 112.859 82.2323 112.312 80.2734C112.297 80.2203 112.184 80.1927 112.117 80.1532C112.117 76.6487 112.117 73.1441 112.153 69.5973C112.656 69.1594 113.13 68.7702 113.591 68.3667C114.725 67.3733 115.855 66.3746 116.984 65.3758C118.539 64.0003 120.096 62.6262 121.645 61.2447C122.663 60.337 123.664 59.4117 124.683 58.505C125.189 58.0544 125.73 57.6402 126.233 57.1861C126.593 56.8608 126.915 56.4964 127.255 56.1494C127.361 56.1494 127.467 56.1494 127.576 56.1684C128.264 56.9255 128.948 57.6636 129.658 58.43C129.213 58.8128 128.817 59.1479 128.427 59.4902C127.306 60.4756 126.186 61.463 125.067 62.4515C123.511 63.8265 121.953 65.2002 120.402 66.5803C119.28 67.5781 118.167 68.5855 117.015 69.6204C133.678 69.6204 150.304 69.6204 166.964 69.6204C166.922 69.5562 166.906 69.513 166.874 69.4857C165.215 68.0348 163.549 66.5908 161.896 65.1337C160.909 64.2638 159.942 63.3726 158.964 62.4929C158.517 62.0912 158.069 61.6907 157.617 61.2955C156.529 60.3461 155.439 59.4002 154.319 58.4264C154.804 57.9298 155.267 57.4784 155.7 57.0014C155.938 56.7397 156.125 56.4348 156.335 56.1494ZM128.864 75.9581C128.174 74.6347 127.045 73.9783 125.535 74.09C123.839 74.2157 122.858 75.2242 122.413 76.7749C121.048 76.7749 119.704 76.7729 118.361 76.7759C117.903 76.777 117.581 77.132 117.714 77.5064C117.846 77.879 118.134 78.0401 118.549 78.0364C119.71 78.026 120.872 78.0429 122.033 78.0283C122.342 78.0245 122.491 78.1 122.578 78.4117C122.791 79.1727 123.3 79.7489 123.98 80.1579C125.876 81.2988 128.328 80.4499 129.045 78.3719C129.134 78.1149 129.254 78.0279 129.53 78.031C130.691 78.0435 131.852 78.0385 133.014 78.0315C133.531 78.0284 133.915 77.7612 133.929 77.4179C133.946 76.9805 133.665 76.7742 133.047 76.774C131.886 76.7738 130.724 76.7659 129.563 76.7812C129.271 76.785 129.096 76.719 129.048 76.4202C129.026 76.2818 128.96 76.15 128.864 75.9581ZM160.08 74.6439C158.269 73.3717 155.419 74.2154 154.765 76.7743C153.43 76.7743 152.088 76.7793 150.746 76.7713C150.336 76.7689 150.067 76.9135 150.058 77.334C150.049 77.7226 150.313 77.9406 150.759 77.9414C151.953 77.9438 153.147 77.9535 154.341 77.9353C154.655 77.9305 154.855 78.0236 154.924 78.3114C155.253 79.6975 156.919 80.7641 158.372 80.6598C159.668 80.5668 161.099 79.5859 161.406 78.3543C161.491 78.0147 161.638 77.9322 161.969 77.9365C163.163 77.952 164.357 77.9457 165.55 77.9414C166.016 77.9398 166.29 77.7147 166.288 77.3564C166.285 76.9861 166.024 76.7746 165.561 76.7742C164.335 76.7732 163.107 76.7663 161.881 76.7791C161.624 76.7817 161.487 76.7061 161.427 76.4666C161.237 75.7098 160.765 75.1367 160.08 74.6439Z" fill="white"/>
</g>
<path d="M102.039 137.691L100.598 133.32H94.375L92.9336 137.691H89.8164L95.8164 120.781H99.2266L105.227 137.691H102.039ZM97.4453 123.77L95.0781 130.988H99.8828L97.5273 123.77H97.4453ZM122.617 125.27L119.254 137.691H116.184L113.734 128.609H113.676L111.238 137.691H108.191L104.828 125.27H107.758L109.855 134.809H109.914L112.34 125.27H115.141L117.566 134.809H117.637L119.734 125.27H122.617ZM129.309 127.273C128.496 127.273 127.816 127.555 127.27 128.117C126.73 128.672 126.43 129.387 126.367 130.262H132.168C132.137 129.379 131.859 128.66 131.336 128.105C130.812 127.551 130.137 127.273 129.309 127.273ZM132.18 133.977H134.91C134.723 135.156 134.125 136.113 133.117 136.848C132.109 137.574 130.875 137.938 129.414 137.938C127.555 137.938 126.094 137.367 125.031 136.227C123.969 135.078 123.438 133.512 123.438 131.527C123.438 129.559 123.965 127.98 125.02 126.793C126.082 125.605 127.508 125.012 129.297 125.012C131.055 125.012 132.449 125.578 133.48 126.711C134.512 127.836 135.027 129.344 135.027 131.234V132.184H126.344V132.359C126.344 133.359 126.625 134.164 127.188 134.773C127.758 135.383 128.52 135.688 129.473 135.688C130.145 135.688 130.723 135.535 131.207 135.23C131.699 134.918 132.023 134.5 132.18 133.977ZM136.691 128.832C136.691 127.691 137.152 126.77 138.074 126.066C138.996 125.363 140.211 125.012 141.719 125.012C143.172 125.012 144.352 125.371 145.258 126.09C146.172 126.801 146.648 127.73 146.688 128.879H143.969C143.922 128.34 143.695 127.918 143.289 127.613C142.883 127.309 142.34 127.156 141.66 127.156C141.02 127.156 140.504 127.297 140.113 127.578C139.723 127.852 139.527 128.215 139.527 128.668C139.527 129.355 140.121 129.844 141.309 130.133L143.523 130.625C144.766 130.914 145.652 131.32 146.184 131.844C146.715 132.367 146.98 133.09 146.98 134.012C146.98 135.184 146.488 136.133 145.504 136.859C144.52 137.578 143.242 137.938 141.672 137.938C140.125 137.938 138.879 137.586 137.934 136.883C136.996 136.172 136.477 135.223 136.375 134.035H139.246C139.332 134.605 139.59 135.043 140.02 135.348C140.457 135.652 141.043 135.805 141.777 135.805C142.488 135.805 143.047 135.672 143.453 135.406C143.867 135.133 144.074 134.766 144.074 134.305C144.074 133.945 143.945 133.66 143.688 133.449C143.438 133.23 143.012 133.043 142.41 132.887L140.148 132.359C137.844 131.82 136.691 130.645 136.691 128.832ZM158.723 136.215C157.637 137.363 156.176 137.938 154.34 137.938C152.504 137.938 151.043 137.363 149.957 136.215C148.871 135.059 148.328 133.48 148.328 131.48C148.328 129.488 148.875 127.914 149.969 126.758C151.062 125.594 152.52 125.012 154.34 125.012C156.168 125.012 157.625 125.594 158.711 126.758C159.805 127.914 160.352 129.488 160.352 131.48C160.352 133.48 159.809 135.059 158.723 136.215ZM152.113 134.539C152.66 135.266 153.402 135.629 154.34 135.629C155.277 135.629 156.02 135.266 156.566 134.539C157.113 133.812 157.387 132.793 157.387 131.48C157.387 130.176 157.113 129.16 156.566 128.434C156.02 127.699 155.277 127.332 154.34 127.332C153.41 127.332 152.668 127.699 152.113 128.434C151.566 129.16 151.293 130.176 151.293 131.48C151.293 132.793 151.566 133.812 152.113 134.539ZM162.227 137.691V125.27H165.027V127.426H165.086C165.359 126.691 165.809 126.109 166.434 125.68C167.059 125.25 167.789 125.035 168.625 125.035C169.5 125.035 170.238 125.254 170.84 125.691C171.449 126.121 171.867 126.734 172.094 127.531H172.164C172.461 126.766 172.953 126.16 173.641 125.715C174.336 125.262 175.133 125.035 176.031 125.035C177.258 125.035 178.238 125.414 178.973 126.172C179.715 126.93 180.086 127.93 180.086 129.172V137.691H177.168V129.887C177.168 129.121 176.973 128.531 176.582 128.117C176.199 127.703 175.652 127.496 174.941 127.496C174.238 127.496 173.668 127.73 173.23 128.199C172.793 128.668 172.574 129.273 172.574 130.016V137.691H169.738V129.734C169.738 129.047 169.539 128.504 169.141 128.105C168.75 127.699 168.215 127.496 167.535 127.496C166.832 127.496 166.258 127.742 165.812 128.234C165.367 128.719 165.145 129.336 165.145 130.086V137.691H162.227ZM187.785 127.273C186.973 127.273 186.293 127.555 185.746 128.117C185.207 128.672 184.906 129.387 184.844 130.262H190.645C190.613 129.379 190.336 128.66 189.812 128.105C189.289 127.551 188.613 127.273 187.785 127.273ZM190.656 133.977H193.387C193.199 135.156 192.602 136.113 191.594 136.848C190.586 137.574 189.352 137.938 187.891 137.938C186.031 137.938 184.57 137.367 183.508 136.227C182.445 135.078 181.914 133.512 181.914 131.527C181.914 129.559 182.441 127.98 183.496 126.793C184.559 125.605 185.984 125.012 187.773 125.012C189.531 125.012 190.926 125.578 191.957 126.711C192.988 127.836 193.504 129.344 193.504 131.234V132.184H184.82V132.359C184.82 133.359 185.102 134.164 185.664 134.773C186.234 135.383 186.996 135.688 187.949 135.688C188.621 135.688 189.199 135.535 189.684 135.23C190.176 134.918 190.5 134.5 190.656 133.977Z" fill="black"/>
<path d="M49.8086 161.98H52.3984C52.5859 163.656 54.2148 164.758 56.4414 164.758C58.5742 164.758 60.1094 163.656 60.1094 162.145C60.1094 160.832 59.1836 160.047 56.9922 159.508L54.8008 158.98C51.6953 158.23 50.2539 156.777 50.2539 154.422C50.2539 151.504 52.7969 149.5 56.4062 149.5C59.9805 149.5 62.4297 151.504 62.5117 154.422H59.957C59.8047 152.734 58.4102 151.715 56.3711 151.715C54.332 151.715 52.9375 152.746 52.9375 154.246C52.9375 155.441 53.8281 156.145 56.0078 156.684L57.8711 157.141C61.3398 157.961 62.7812 159.355 62.7812 161.828C62.7812 164.992 60.2617 166.973 56.2539 166.973C52.5039 166.973 49.9727 165.039 49.8086 161.98ZM69.9883 156.18C68.2188 156.18 66.9766 157.527 66.8477 159.391H73.0117C72.9531 157.504 71.7578 156.18 69.9883 156.18ZM73 163.07H75.4023C75.0508 165.32 72.918 166.926 70.0938 166.926C66.4727 166.926 64.2812 164.477 64.2812 160.586C64.2812 156.719 66.5078 154.141 69.9883 154.141C73.4102 154.141 75.543 156.555 75.543 160.293V161.16H66.8359V161.312C66.8359 163.457 68.125 164.875 70.1523 164.875C71.5938 164.875 72.6602 164.148 73 163.07ZM77.5117 166.691V154.363H79.9258V156.438H79.9844C80.5352 155.066 81.8242 154.152 83.4883 154.152C85.1992 154.152 86.4414 155.031 86.9336 156.566H86.9922C87.625 155.066 89.0781 154.152 90.8359 154.152C93.2734 154.152 94.8672 155.77 94.8672 158.219V166.691H92.3242V158.828C92.3242 157.234 91.4688 156.32 89.9688 156.32C88.4688 156.32 87.4258 157.434 87.4258 158.992V166.691H84.9414V158.641C84.9414 157.223 84.0391 156.32 82.6094 156.32C81.1094 156.32 80.043 157.492 80.043 159.074V166.691H77.5117ZM101.629 164.898C103.398 164.898 104.781 163.68 104.781 162.074V161.102L101.746 161.289C100.234 161.395 99.3789 162.062 99.3789 163.117C99.3789 164.195 100.27 164.898 101.629 164.898ZM100.926 166.902C98.5117 166.902 96.8242 165.402 96.8242 163.188C96.8242 161.031 98.4766 159.707 101.406 159.543L104.781 159.344V158.395C104.781 157.023 103.855 156.203 102.309 156.203C100.844 156.203 99.9297 156.906 99.707 158.008H97.3164C97.457 155.781 99.3555 154.141 102.402 154.141C105.391 154.141 107.301 155.723 107.301 158.195V166.691H104.875V164.664H104.816C104.102 166.035 102.543 166.902 100.926 166.902ZM109.762 166.691V154.363H112.176V156.426H112.234C112.902 155.02 114.215 154.152 116.113 154.152C118.832 154.152 120.391 155.887 120.391 158.711V166.691H117.848V159.203C117.848 157.352 116.98 156.332 115.223 156.332C113.441 156.332 112.293 157.598 112.293 159.508V166.691H109.762ZM123.578 151.445H126.121V154.363H128.465V156.367H126.121V163.164C126.121 164.23 126.59 164.711 127.621 164.711C127.879 164.711 128.289 164.688 128.453 164.652V166.656C128.172 166.727 127.609 166.773 127.047 166.773C124.551 166.773 123.578 165.824 123.578 163.445V156.367H121.785V154.363H123.578V151.445ZM130.633 166.691V154.363H133.164V166.691H130.633ZM131.898 152.559C131.09 152.559 130.434 151.914 130.434 151.117C130.434 150.309 131.09 149.664 131.898 149.664C132.719 149.664 133.375 150.309 133.375 151.117C133.375 151.914 132.719 152.559 131.898 152.559ZM146.336 158.605H143.922C143.664 157.293 142.68 156.25 141.027 156.25C139.07 156.25 137.781 157.879 137.781 160.527C137.781 163.234 139.082 164.805 141.051 164.805C142.609 164.805 143.629 163.949 143.922 162.52H146.359C146.09 165.145 143.992 166.926 141.027 166.926C137.5 166.926 135.203 164.512 135.203 160.527C135.203 156.613 137.5 154.141 141.004 154.141C144.18 154.141 146.113 156.18 146.336 158.605ZM160.469 166.973C155.723 166.973 152.723 163.621 152.723 158.23C152.723 152.875 155.746 149.5 160.469 149.5C164.301 149.5 167.195 151.855 167.641 155.383H165.039C164.57 153.215 162.766 151.797 160.469 151.797C157.398 151.797 155.406 154.316 155.406 158.23C155.406 162.18 157.375 164.676 160.48 164.676C162.836 164.676 164.512 163.469 165.039 161.43H167.652C167.008 164.922 164.359 166.973 160.469 166.973ZM175.012 166.926C171.484 166.926 169.164 164.5 169.164 160.527C169.164 156.566 171.496 154.141 175.012 154.141C178.527 154.141 180.859 156.566 180.859 160.527C180.859 164.5 178.539 166.926 175.012 166.926ZM175.012 164.84C177.004 164.84 178.281 163.27 178.281 160.527C178.281 157.797 176.992 156.227 175.012 156.227C173.031 156.227 171.742 157.797 171.742 160.527C171.742 163.27 173.031 164.84 175.012 164.84ZM182.816 166.691V154.363H185.23V156.438H185.289C185.84 155.066 187.129 154.152 188.793 154.152C190.504 154.152 191.746 155.031 192.238 156.566H192.297C192.93 155.066 194.383 154.152 196.141 154.152C198.578 154.152 200.172 155.77 200.172 158.219V166.691H197.629V158.828C197.629 157.234 196.773 156.32 195.273 156.32C193.773 156.32 192.73 157.434 192.73 158.992V166.691H190.246V158.641C190.246 157.223 189.344 156.32 187.914 156.32C186.414 156.32 185.348 157.492 185.348 159.074V166.691H182.816ZM202.621 166.691V154.363H205.035V156.438H205.094C205.645 155.066 206.934 154.152 208.598 154.152C210.309 154.152 211.551 155.031 212.043 156.566H212.102C212.734 155.066 214.188 154.152 215.945 154.152C218.383 154.152 219.977 155.77 219.977 158.219V166.691H217.434V158.828C217.434 157.234 216.578 156.32 215.078 156.32C213.578 156.32 212.535 157.434 212.535 158.992V166.691H210.051V158.641C210.051 157.223 209.148 156.32 207.719 156.32C206.219 156.32 205.152 157.492 205.152 159.074V166.691H202.621ZM222.508 166.691V154.363H225.039V166.691H222.508ZM223.773 152.559C222.965 152.559 222.309 151.914 222.309 151.117C222.309 150.309 222.965 149.664 223.773 149.664C224.594 149.664 225.25 150.309 225.25 151.117C225.25 151.914 224.594 152.559 223.773 152.559ZM228.367 151.445H230.91V154.363H233.254V156.367H230.91V163.164C230.91 164.23 231.379 164.711 232.41 164.711C232.668 164.711 233.078 164.688 233.242 164.652V166.656C232.961 166.727 232.398 166.773 231.836 166.773C229.34 166.773 228.367 165.824 228.367 163.445V156.367H226.574V154.363H228.367V151.445Z" fill="black"/>
<path d="M62.4854 251.753C62.4854 255.181 60.4902 257.211 57.1064 257.211C53.5645 257.211 51.2969 254.627 51.2969 250.593C51.2969 246.629 53.5557 244.106 57.1064 244.106C59.8486 244.106 61.9316 245.732 62.4062 248.255H60.7451C60.2178 246.541 58.8906 245.565 57.1064 245.565C54.4961 245.565 52.9229 247.446 52.9229 250.584C52.9229 253.774 54.5225 255.752 57.1064 255.752C59.3564 255.752 60.9033 254.293 60.9033 252.166V251.938H57.3262V250.549H62.4854V251.753ZM71.7842 247.859V257H70.334V255.515H70.2988C69.7539 256.569 68.8047 257.158 67.3984 257.158C65.4033 257.158 64.2344 255.866 64.2344 253.792V247.859H65.7637V253.52C65.7637 255.005 66.458 255.805 67.873 255.805C69.3584 255.805 70.2549 254.785 70.2549 253.229V247.859H71.7842ZM73.8496 257V247.859H75.3789V257H73.8496ZM74.6143 246.321C74.0957 246.321 73.665 245.891 73.665 245.372C73.665 244.845 74.0957 244.423 74.6143 244.423C75.1416 244.423 75.5723 244.845 75.5723 245.372C75.5723 245.891 75.1416 246.321 74.6143 246.321ZM80.9072 257.158C78.5781 257.158 76.9961 255.295 76.9961 252.43C76.9961 249.564 78.5693 247.701 80.8721 247.701C82.1816 247.701 83.2363 248.343 83.7812 249.345H83.8164V244.317H85.3457V257H83.8867V255.453H83.8604C83.2715 256.508 82.2256 257.158 80.9072 257.158ZM81.1973 249.046C79.5801 249.046 78.5605 250.364 78.5605 252.43C78.5605 254.504 79.5801 255.813 81.1973 255.813C82.7705 255.813 83.8252 254.478 83.8252 252.43C83.8252 250.391 82.7705 249.046 81.1973 249.046ZM91.0762 249.028C89.6436 249.028 88.6416 250.127 88.5449 251.647H93.5107C93.4756 250.118 92.5176 249.028 91.0762 249.028ZM93.4756 254.381H94.9785C94.7148 255.98 93.168 257.158 91.1729 257.158C88.5537 257.158 86.9629 255.339 86.9629 252.465C86.9629 249.626 88.5801 247.701 91.1025 247.701C93.5723 247.701 95.0928 249.494 95.0928 252.263V252.843H88.5361V252.931C88.5361 254.68 89.5645 255.831 91.208 255.831C92.3682 255.831 93.2207 255.242 93.4756 254.381ZM100.823 245.653H102.353V247.859H104.128V249.116H102.353V254.548C102.353 255.383 102.704 255.761 103.486 255.761C103.662 255.761 104.014 255.734 104.119 255.717V257C103.935 257.044 103.513 257.07 103.152 257.07C101.474 257.07 100.823 256.385 100.823 254.627V249.116H99.4609V247.859H100.823V245.653ZM109.287 257.158C106.756 257.158 105.051 255.339 105.051 252.43C105.051 249.512 106.756 247.701 109.287 247.701C111.81 247.701 113.515 249.512 113.515 252.43C113.515 255.339 111.81 257.158 109.287 257.158ZM109.287 255.813C110.904 255.813 111.959 254.583 111.959 252.43C111.959 250.276 110.904 249.046 109.287 249.046C107.67 249.046 106.606 250.276 106.606 252.43C106.606 254.583 107.67 255.813 109.287 255.813ZM118.753 257V247.859H120.194V249.354H120.229C120.528 248.343 121.372 247.701 122.444 247.701C122.708 247.701 122.937 247.745 123.06 247.763V249.248C122.937 249.204 122.611 249.16 122.242 249.16C121.056 249.16 120.282 250.013 120.282 251.305V257H118.753ZM127.533 249.028C126.101 249.028 125.099 250.127 125.002 251.647H129.968C129.933 250.118 128.975 249.028 127.533 249.028ZM129.933 254.381H131.436C131.172 255.98 129.625 257.158 127.63 257.158C125.011 257.158 123.42 255.339 123.42 252.465C123.42 249.626 125.037 247.701 127.56 247.701C130.029 247.701 131.55 249.494 131.55 252.263V252.843H124.993V252.931C124.993 254.68 126.021 255.831 127.665 255.831C128.825 255.831 129.678 255.242 129.933 254.381ZM136.814 255.726C138.405 255.726 139.469 254.407 139.469 252.395C139.469 250.382 138.405 249.046 136.814 249.046C135.241 249.046 134.213 250.347 134.213 252.395C134.213 254.442 135.241 255.726 136.814 255.726ZM136.867 260.445C134.854 260.445 133.264 259.312 133.009 257.756H134.582C134.881 258.591 135.786 259.145 136.929 259.145C138.511 259.145 139.469 258.23 139.469 256.868V255.427H139.434C138.871 256.42 137.79 257.07 136.507 257.07C134.178 257.07 132.648 255.233 132.648 252.395C132.648 249.529 134.178 247.701 136.542 247.701C137.834 247.701 138.906 248.334 139.513 249.397H139.539V247.859H140.998V256.815C140.998 258.995 139.39 260.445 136.867 260.445ZM150.499 247.859V257H149.049V255.515H149.014C148.469 256.569 147.52 257.158 146.113 257.158C144.118 257.158 142.949 255.866 142.949 253.792V247.859H144.479V253.52C144.479 255.005 145.173 255.805 146.588 255.805C148.073 255.805 148.97 254.785 148.97 253.229V247.859H150.499ZM152.564 257V244.317H154.094V257H152.564ZM159.174 255.857C160.615 255.857 161.723 254.847 161.723 253.528V252.781L159.279 252.931C158.049 253.01 157.346 253.555 157.346 254.416C157.346 255.286 158.075 255.857 159.174 255.857ZM158.831 257.158C157.012 257.158 155.79 256.06 155.79 254.416C155.79 252.852 156.994 251.867 159.104 251.744L161.723 251.595V250.83C161.723 249.714 160.984 249.046 159.719 249.046C158.541 249.046 157.803 249.6 157.609 250.496H156.133C156.238 248.914 157.592 247.701 159.754 247.701C161.898 247.701 163.252 248.861 163.252 250.681V257H161.802V255.427H161.767C161.222 256.473 160.062 257.158 158.831 257.158ZM165.194 257V247.859H166.636V249.354H166.671C166.97 248.343 167.813 247.701 168.886 247.701C169.149 247.701 169.378 247.745 169.501 247.763V249.248C169.378 249.204 169.053 249.16 168.684 249.16C167.497 249.16 166.724 250.013 166.724 251.305V257H165.194Z" fill="black"/>
<path d="M182.553 251.006H180.487C180.394 250.484 180.171 250.065 179.819 249.749C179.468 249.427 179.011 249.266 178.448 249.266C177.757 249.266 177.206 249.541 176.796 250.092C176.386 250.637 176.181 251.387 176.181 252.342C176.181 253.309 176.386 254.064 176.796 254.609C177.206 255.148 177.763 255.418 178.466 255.418C179.017 255.418 179.468 255.271 179.819 254.979C180.171 254.68 180.396 254.264 180.496 253.73H182.562C182.474 254.773 182.055 255.611 181.305 256.244C180.561 256.871 179.605 257.185 178.439 257.185C177.068 257.185 175.979 256.754 175.17 255.893C174.361 255.025 173.957 253.842 173.957 252.342C173.957 250.859 174.361 249.682 175.17 248.809C175.979 247.93 177.062 247.49 178.422 247.49C179.617 247.49 180.584 247.824 181.322 248.492C182.066 249.154 182.477 249.992 182.553 251.006ZM191.28 255.893C190.466 256.754 189.37 257.185 187.993 257.185C186.616 257.185 185.521 256.754 184.706 255.893C183.892 255.025 183.484 253.842 183.484 252.342C183.484 250.848 183.895 249.667 184.715 248.8C185.535 247.927 186.628 247.49 187.993 247.49C189.364 247.49 190.457 247.927 191.271 248.8C192.092 249.667 192.502 250.848 192.502 252.342C192.502 253.842 192.095 255.025 191.28 255.893ZM186.323 254.636C186.733 255.181 187.29 255.453 187.993 255.453C188.696 255.453 189.253 255.181 189.663 254.636C190.073 254.091 190.278 253.326 190.278 252.342C190.278 251.363 190.073 250.602 189.663 250.057C189.253 249.506 188.696 249.23 187.993 249.23C187.296 249.23 186.739 249.506 186.323 250.057C185.913 250.602 185.708 251.363 185.708 252.342C185.708 253.326 185.913 254.091 186.323 254.636ZM193.908 257V247.684H196.009V249.301H196.053C196.258 248.75 196.595 248.313 197.063 247.991C197.532 247.669 198.08 247.508 198.707 247.508C199.363 247.508 199.917 247.672 200.368 248C200.825 248.322 201.139 248.782 201.309 249.38H201.361C201.584 248.806 201.953 248.352 202.469 248.018C202.99 247.678 203.588 247.508 204.262 247.508C205.182 247.508 205.917 247.792 206.468 248.36C207.024 248.929 207.303 249.679 207.303 250.61V257H205.114V251.146C205.114 250.572 204.968 250.13 204.675 249.819C204.388 249.509 203.978 249.354 203.444 249.354C202.917 249.354 202.489 249.529 202.161 249.881C201.833 250.232 201.669 250.687 201.669 251.243V257H199.542V251.032C199.542 250.517 199.393 250.109 199.094 249.811C198.801 249.506 198.399 249.354 197.89 249.354C197.362 249.354 196.932 249.538 196.598 249.907C196.264 250.271 196.097 250.733 196.097 251.296V257H193.908ZM209.061 257V247.684H211.161V249.301H211.205C211.41 248.75 211.747 248.313 212.216 247.991C212.685 247.669 213.232 247.508 213.859 247.508C214.516 247.508 215.069 247.672 215.521 248C215.978 248.322 216.291 248.782 216.461 249.38H216.514C216.736 248.806 217.105 248.352 217.621 248.018C218.143 247.678 218.74 247.508 219.414 247.508C220.334 247.508 221.069 247.792 221.62 248.36C222.177 248.929 222.455 249.679 222.455 250.61V257H220.267V251.146C220.267 250.572 220.12 250.13 219.827 249.819C219.54 249.509 219.13 249.354 218.597 249.354C218.069 249.354 217.642 249.529 217.313 249.881C216.985 250.232 216.821 250.687 216.821 251.243V257H214.694V251.032C214.694 250.517 214.545 250.109 214.246 249.811C213.953 249.506 213.552 249.354 213.042 249.354C212.515 249.354 212.084 249.538 211.75 249.907C211.416 250.271 211.249 250.733 211.249 251.296V257H209.061ZM224.266 257V247.684H226.454V257H224.266ZM226.217 246.119C225.982 246.348 225.695 246.462 225.355 246.462C225.016 246.462 224.729 246.348 224.494 246.119C224.26 245.885 224.143 245.604 224.143 245.275C224.143 244.941 224.26 244.66 224.494 244.432C224.729 244.197 225.016 244.08 225.355 244.08C225.695 244.08 225.982 244.197 226.217 244.432C226.457 244.66 226.577 244.941 226.577 245.275C226.577 245.604 226.457 245.885 226.217 246.119ZM228.897 245.504H231.086V247.684H232.844V249.371H231.086V254.214C231.086 254.595 231.177 254.876 231.358 255.058C231.54 255.239 231.824 255.33 232.211 255.33C232.469 255.33 232.677 255.315 232.835 255.286V256.956C232.571 257.015 232.193 257.044 231.701 257.044C230.693 257.044 229.973 256.851 229.539 256.464C229.111 256.077 228.897 255.43 228.897 254.521V249.371H227.562V247.684H228.897V245.504ZM102.203 278V268.684H104.304V270.301H104.348C104.553 269.75 104.89 269.313 105.358 268.991C105.827 268.669 106.375 268.508 107.002 268.508C107.658 268.508 108.212 268.672 108.663 269C109.12 269.322 109.434 269.782 109.604 270.38H109.656C109.879 269.806 110.248 269.352 110.764 269.018C111.285 268.678 111.883 268.508 112.557 268.508C113.477 268.508 114.212 268.792 114.763 269.36C115.319 269.929 115.598 270.679 115.598 271.61V278H113.409V272.146C113.409 271.572 113.263 271.13 112.97 270.819C112.683 270.509 112.272 270.354 111.739 270.354C111.212 270.354 110.784 270.529 110.456 270.881C110.128 271.232 109.964 271.687 109.964 272.243V278H107.837V272.032C107.837 271.517 107.688 271.109 107.389 270.811C107.096 270.506 106.694 270.354 106.185 270.354C105.657 270.354 105.227 270.538 104.893 270.907C104.559 271.271 104.392 271.733 104.392 272.296V278H102.203ZM121.372 270.187C120.763 270.187 120.253 270.397 119.843 270.819C119.438 271.235 119.213 271.771 119.166 272.428H123.517C123.493 271.766 123.285 271.227 122.893 270.811C122.5 270.395 121.993 270.187 121.372 270.187ZM123.525 275.214H125.573C125.433 276.099 124.984 276.816 124.229 277.367C123.473 277.912 122.547 278.185 121.451 278.185C120.057 278.185 118.961 277.757 118.164 276.901C117.367 276.04 116.969 274.865 116.969 273.377C116.969 271.9 117.364 270.717 118.155 269.826C118.952 268.936 120.021 268.49 121.363 268.49C122.682 268.49 123.728 268.915 124.501 269.765C125.274 270.608 125.661 271.739 125.661 273.157V273.869H119.148V274.001C119.148 274.751 119.359 275.354 119.781 275.812C120.209 276.269 120.78 276.497 121.495 276.497C121.999 276.497 122.433 276.383 122.796 276.154C123.165 275.92 123.408 275.606 123.525 275.214ZM126.909 271.355C126.909 270.5 127.255 269.809 127.946 269.281C128.638 268.754 129.549 268.49 130.68 268.49C131.77 268.49 132.654 268.76 133.334 269.299C134.02 269.832 134.377 270.529 134.406 271.391H132.367C132.332 270.986 132.162 270.67 131.857 270.441C131.553 270.213 131.146 270.099 130.636 270.099C130.155 270.099 129.769 270.204 129.476 270.415C129.183 270.62 129.036 270.893 129.036 271.232C129.036 271.748 129.481 272.114 130.372 272.331L132.033 272.7C132.965 272.917 133.63 273.222 134.028 273.614C134.427 274.007 134.626 274.549 134.626 275.24C134.626 276.119 134.257 276.831 133.519 277.376C132.78 277.915 131.822 278.185 130.645 278.185C129.484 278.185 128.55 277.921 127.841 277.394C127.138 276.86 126.748 276.148 126.672 275.258H128.825C128.89 275.686 129.083 276.014 129.405 276.242C129.733 276.471 130.173 276.585 130.724 276.585C131.257 276.585 131.676 276.485 131.98 276.286C132.291 276.081 132.446 275.806 132.446 275.46C132.446 275.19 132.35 274.977 132.156 274.818C131.969 274.654 131.649 274.514 131.198 274.396L129.502 274.001C127.773 273.597 126.909 272.715 126.909 271.355ZM135.856 271.355C135.856 270.5 136.202 269.809 136.894 269.281C137.585 268.754 138.496 268.49 139.627 268.49C140.717 268.49 141.602 268.76 142.281 269.299C142.967 269.832 143.324 270.529 143.354 271.391H141.314C141.279 270.986 141.109 270.67 140.805 270.441C140.5 270.213 140.093 270.099 139.583 270.099C139.103 270.099 138.716 270.204 138.423 270.415C138.13 270.62 137.983 270.893 137.983 271.232C137.983 271.748 138.429 272.114 139.319 272.331L140.98 272.7C141.912 272.917 142.577 273.222 142.976 273.614C143.374 274.007 143.573 274.549 143.573 275.24C143.573 276.119 143.204 276.831 142.466 277.376C141.728 277.915 140.77 278.185 139.592 278.185C138.432 278.185 137.497 277.921 136.788 277.394C136.085 276.86 135.695 276.148 135.619 275.258H137.772C137.837 275.686 138.03 276.014 138.353 276.242C138.681 276.471 139.12 276.585 139.671 276.585C140.204 276.585 140.623 276.485 140.928 276.286C141.238 276.081 141.394 275.806 141.394 275.46C141.394 275.19 141.297 274.977 141.104 274.818C140.916 274.654 140.597 274.514 140.146 274.396L138.449 274.001C136.721 273.597 135.856 272.715 135.856 271.355ZM148.372 276.497C148.999 276.497 149.526 276.312 149.954 275.943C150.388 275.568 150.604 275.103 150.604 274.546V273.834L148.451 273.966C147.924 274.001 147.514 274.133 147.221 274.361C146.934 274.584 146.79 274.88 146.79 275.249C146.79 275.63 146.934 275.935 147.221 276.163C147.514 276.386 147.897 276.497 148.372 276.497ZM147.713 278.149C146.805 278.149 146.058 277.889 145.472 277.367C144.892 276.846 144.602 276.169 144.602 275.337C144.602 274.511 144.906 273.857 145.516 273.377C146.131 272.896 147.007 272.621 148.144 272.551L150.604 272.41V271.742C150.604 271.256 150.449 270.878 150.139 270.608C149.834 270.339 149.409 270.204 148.864 270.204C148.354 270.204 147.938 270.318 147.616 270.547C147.294 270.775 147.098 271.086 147.027 271.479H144.997C145.044 270.594 145.422 269.876 146.131 269.325C146.846 268.769 147.786 268.49 148.952 268.49C150.106 268.49 151.029 268.771 151.721 269.334C152.418 269.896 152.767 270.646 152.767 271.584V278H150.657V276.515H150.613C150.35 277.013 149.951 277.411 149.418 277.71C148.885 278.003 148.316 278.149 147.713 278.149ZM158.646 276.269C159.35 276.269 159.909 276.005 160.325 275.478C160.741 274.944 160.949 274.224 160.949 273.315C160.949 272.407 160.738 271.684 160.316 271.145C159.9 270.6 159.344 270.327 158.646 270.327C157.955 270.327 157.404 270.597 156.994 271.136C156.59 271.675 156.388 272.401 156.388 273.315C156.388 274.235 156.59 274.959 156.994 275.486C157.404 276.008 157.955 276.269 158.646 276.269ZM158.638 281.516C157.495 281.516 156.54 281.252 155.772 280.725C155.011 280.203 154.574 279.529 154.463 278.703H156.634C156.751 279.061 156.997 279.348 157.372 279.564C157.747 279.787 158.192 279.898 158.708 279.898C159.411 279.898 159.959 279.717 160.352 279.354C160.75 278.996 160.949 278.516 160.949 277.912V276.339H160.896C160.65 276.849 160.267 277.256 159.745 277.561C159.229 277.859 158.641 278.009 157.979 278.009C156.818 278.009 155.89 277.587 155.192 276.743C154.495 275.894 154.146 274.748 154.146 273.307C154.146 271.836 154.495 270.673 155.192 269.817C155.89 268.956 156.833 268.525 158.022 268.525C158.679 268.525 159.265 268.684 159.78 269C160.296 269.311 160.688 269.738 160.958 270.283H160.993V268.684H163.138V277.851C163.138 278.964 162.728 279.852 161.907 280.514C161.087 281.182 159.997 281.516 158.638 281.516ZM168.938 270.187C168.329 270.187 167.819 270.397 167.409 270.819C167.005 271.235 166.779 271.771 166.732 272.428H171.083C171.06 271.766 170.852 271.227 170.459 270.811C170.066 270.395 169.56 270.187 168.938 270.187ZM171.092 275.214H173.14C172.999 276.099 172.551 276.816 171.795 277.367C171.039 277.912 170.113 278.185 169.018 278.185C167.623 278.185 166.527 277.757 165.73 276.901C164.934 276.04 164.535 274.865 164.535 273.377C164.535 271.9 164.931 270.717 165.722 269.826C166.519 268.936 167.588 268.49 168.93 268.49C170.248 268.49 171.294 268.915 172.067 269.765C172.841 270.608 173.228 271.739 173.228 273.157V273.869H166.715V274.001C166.715 274.751 166.926 275.354 167.348 275.812C167.775 276.269 168.347 276.497 169.062 276.497C169.565 276.497 169.999 276.383 170.362 276.154C170.731 275.92 170.975 275.606 171.092 275.214ZM174.476 271.355C174.476 270.5 174.821 269.809 175.513 269.281C176.204 268.754 177.115 268.49 178.246 268.49C179.336 268.49 180.221 268.76 180.9 269.299C181.586 269.832 181.943 270.529 181.973 271.391H179.934C179.898 270.986 179.729 270.67 179.424 270.441C179.119 270.213 178.712 270.099 178.202 270.099C177.722 270.099 177.335 270.204 177.042 270.415C176.749 270.62 176.603 270.893 176.603 271.232C176.603 271.748 177.048 272.114 177.938 272.331L179.6 272.7C180.531 272.917 181.196 273.222 181.595 273.614C181.993 274.007 182.192 274.549 182.192 275.24C182.192 276.119 181.823 276.831 181.085 277.376C180.347 277.915 179.389 278.185 178.211 278.185C177.051 278.185 176.116 277.921 175.407 277.394C174.704 276.86 174.314 276.148 174.238 275.258H176.392C176.456 275.686 176.649 276.014 176.972 276.242C177.3 276.471 177.739 276.585 178.29 276.585C178.823 276.585 179.242 276.485 179.547 276.286C179.857 276.081 180.013 275.806 180.013 275.46C180.013 275.19 179.916 274.977 179.723 274.818C179.535 274.654 179.216 274.514 178.765 274.396L177.068 274.001C175.34 273.597 174.476 272.715 174.476 271.355Z" fill="url(#paint3_linear_3218_1716)"/>
<defs>
<linearGradient id="paint0_linear_3218_1716" x1="0" y1="159" x2="284" y2="159" gradientUnits="userSpaceOnUse">
<stop stop-color="#637AFA"/>
<stop offset="1" stop-color="#37448C"/>
</linearGradient>
<linearGradient id="paint1_linear_3218_1716" x1="7" y1="209.691" x2="226" y2="209.691" gradientUnits="userSpaceOnUse">
<stop stop-color="#637AFA"/>
<stop offset="1" stop-color="#38458E"/>
</linearGradient>
<linearGradient id="paint2_linear_3218_1716" x1="142" y1="30" x2="142" y2="109.691" gradientUnits="userSpaceOnUse">
<stop stop-color="#637AFA"/>
<stop offset="1" stop-color="#405CF6"/>
</linearGradient>
<linearGradient id="paint3_linear_3218_1716" x1="133.403" y1="261" x2="264" y2="261" gradientUnits="userSpaceOnUse">
<stop stop-color="#FF8700"/>
<stop offset="1" stop-color="#C06600"/>
</linearGradient>
</defs>
</svg>
