<svg width="284" height="318" viewBox="0 0 284 318" fill="none" xmlns="http://www.w3.org/2000/svg">
<rect x="3.5" y="3.5" width="277" height="311" rx="11.5" fill="white"/>
<rect x="3.5" y="3.5" width="277" height="311" rx="11.5" stroke="url(#paint0_linear_3218_1757)" stroke-width="7"/>
<rect x="7" y="202.691" width="270" height="7" fill="url(#paint1_linear_3218_1757)"/>
<path d="M173.091 30H110.908C106.079 30 102.164 33.916 102.164 38.7466V100.945C102.164 105.775 106.079 109.691 110.908 109.691H173.091C177.92 109.691 181.835 105.775 181.835 100.945V38.7466C181.835 33.916 177.92 30 173.091 30Z" fill="url(#paint2_linear_3218_1757)"/>
<mask id="mask0_3218_1757" style="mask-type:luminance" maskUnits="userSpaceOnUse" x="112" y="54" width="60" height="33">
<path d="M171.87 54.9033H112.117V86.0328H171.87V54.9033Z" fill="white"/>
</mask>
<g mask="url(#mask0_3218_1757)">
<path d="M156.335 56.1494C156.441 56.1494 156.547 56.1494 156.66 56.1719C157.989 57.3621 159.311 58.5309 160.636 59.6972C161.706 60.6398 162.784 61.5752 163.85 62.5217C165.538 64.0189 167.219 65.5226 168.903 67.0237C169.774 67.801 170.643 68.5816 171.523 69.3507C171.604 69.4217 171.753 69.4204 171.87 69.4528C171.87 72.9895 171.87 76.5261 171.842 80.0741C171.764 80.1778 171.699 80.2654 171.667 80.3632C171.2 81.7877 170.372 82.9725 169.168 83.9098C167.808 84.9693 166.262 85.6119 164.533 85.8479C164.481 85.8551 164.445 85.9694 164.401 86.0337C160.283 86.0337 156.164 86.0337 152.035 86.0042C151.942 85.9298 151.865 85.8547 151.779 85.8447C150.397 85.6841 149.124 85.2185 147.974 84.4803C145.619 82.968 144.307 80.8965 144.382 78.0827C144.424 76.5105 144.389 74.9364 144.389 73.3631C144.389 73.1928 144.389 73.0224 144.389 72.8514C142.761 72.8514 141.195 72.8514 139.597 72.8514C139.597 73.1047 139.601 73.3271 139.597 73.5493C139.565 75.5495 139.589 77.5526 139.478 79.5488C139.409 80.8055 138.789 81.9089 137.939 82.8527C136.422 84.5377 134.507 85.5375 132.211 85.8445C132.145 85.8535 132.093 85.9682 132.035 86.0337C127.916 86.0337 123.798 86.0337 119.667 86.0033C119.589 85.9295 119.528 85.8567 119.458 85.8471C118.189 85.6747 117.006 85.2764 115.908 84.6334C114.153 83.6067 112.859 82.2323 112.312 80.2734C112.297 80.2203 112.184 80.1927 112.117 80.1532C112.117 76.6487 112.117 73.1441 112.153 69.5973C112.656 69.1594 113.13 68.7702 113.591 68.3667C114.725 67.3733 115.855 66.3746 116.984 65.3758C118.539 64.0003 120.096 62.6262 121.645 61.2447C122.663 60.337 123.664 59.4117 124.683 58.505C125.189 58.0544 125.73 57.6402 126.233 57.1861C126.593 56.8608 126.915 56.4964 127.255 56.1494C127.361 56.1494 127.467 56.1494 127.576 56.1684C128.264 56.9255 128.948 57.6636 129.658 58.43C129.213 58.8128 128.817 59.1479 128.427 59.4902C127.306 60.4756 126.186 61.463 125.067 62.4515C123.511 63.8265 121.953 65.2002 120.402 66.5803C119.28 67.5781 118.167 68.5855 117.015 69.6204C133.678 69.6204 150.304 69.6204 166.964 69.6204C166.922 69.5562 166.906 69.513 166.874 69.4857C165.215 68.0348 163.549 66.5908 161.896 65.1337C160.909 64.2638 159.942 63.3726 158.964 62.4929C158.517 62.0912 158.069 61.6907 157.617 61.2955C156.529 60.3461 155.439 59.4002 154.319 58.4264C154.804 57.9298 155.267 57.4784 155.7 57.0014C155.938 56.7397 156.125 56.4348 156.335 56.1494ZM128.864 75.9581C128.174 74.6347 127.045 73.9783 125.535 74.09C123.839 74.2157 122.858 75.2242 122.413 76.7749C121.048 76.7749 119.704 76.7729 118.361 76.7759C117.903 76.777 117.581 77.132 117.714 77.5064C117.846 77.879 118.134 78.0401 118.549 78.0364C119.71 78.026 120.872 78.0429 122.033 78.0283C122.342 78.0245 122.491 78.1 122.578 78.4117C122.791 79.1727 123.3 79.7489 123.98 80.1579C125.876 81.2988 128.328 80.4499 129.045 78.3719C129.134 78.1149 129.254 78.0279 129.53 78.031C130.691 78.0435 131.852 78.0385 133.014 78.0315C133.531 78.0284 133.915 77.7612 133.929 77.4179C133.946 76.9805 133.665 76.7742 133.047 76.774C131.886 76.7738 130.724 76.7659 129.563 76.7812C129.271 76.785 129.096 76.719 129.048 76.4202C129.026 76.2818 128.96 76.15 128.864 75.9581ZM160.08 74.6439C158.269 73.3717 155.419 74.2154 154.765 76.7743C153.43 76.7743 152.088 76.7793 150.746 76.7713C150.336 76.7689 150.067 76.9135 150.058 77.334C150.049 77.7226 150.313 77.9406 150.759 77.9414C151.953 77.9438 153.147 77.9535 154.341 77.9353C154.655 77.9305 154.855 78.0236 154.924 78.3114C155.253 79.6975 156.919 80.7641 158.372 80.6598C159.668 80.5668 161.099 79.5859 161.406 78.3543C161.491 78.0147 161.638 77.9322 161.969 77.9365C163.163 77.952 164.357 77.9457 165.55 77.9414C166.016 77.9398 166.29 77.7147 166.288 77.3564C166.285 76.9861 166.024 76.7746 165.561 76.7742C164.335 76.7732 163.107 76.7663 161.881 76.7791C161.624 76.7817 161.487 76.7061 161.427 76.4666C161.237 75.7098 160.765 75.1367 160.08 74.6439Z" fill="white"/>
</g>
<path d="M102.039 137.691L100.598 133.32H94.375L92.9336 137.691H89.8164L95.8164 120.781H99.2266L105.227 137.691H102.039ZM97.4453 123.77L95.0781 130.988H99.8828L97.5273 123.77H97.4453ZM122.617 125.27L119.254 137.691H116.184L113.734 128.609H113.676L111.238 137.691H108.191L104.828 125.27H107.758L109.855 134.809H109.914L112.34 125.27H115.141L117.566 134.809H117.637L119.734 125.27H122.617ZM129.309 127.273C128.496 127.273 127.816 127.555 127.27 128.117C126.73 128.672 126.43 129.387 126.367 130.262H132.168C132.137 129.379 131.859 128.66 131.336 128.105C130.812 127.551 130.137 127.273 129.309 127.273ZM132.18 133.977H134.91C134.723 135.156 134.125 136.113 133.117 136.848C132.109 137.574 130.875 137.938 129.414 137.938C127.555 137.938 126.094 137.367 125.031 136.227C123.969 135.078 123.438 133.512 123.438 131.527C123.438 129.559 123.965 127.98 125.02 126.793C126.082 125.605 127.508 125.012 129.297 125.012C131.055 125.012 132.449 125.578 133.48 126.711C134.512 127.836 135.027 129.344 135.027 131.234V132.184H126.344V132.359C126.344 133.359 126.625 134.164 127.188 134.773C127.758 135.383 128.52 135.688 129.473 135.688C130.145 135.688 130.723 135.535 131.207 135.23C131.699 134.918 132.023 134.5 132.18 133.977ZM136.691 128.832C136.691 127.691 137.152 126.77 138.074 126.066C138.996 125.363 140.211 125.012 141.719 125.012C143.172 125.012 144.352 125.371 145.258 126.09C146.172 126.801 146.648 127.73 146.688 128.879H143.969C143.922 128.34 143.695 127.918 143.289 127.613C142.883 127.309 142.34 127.156 141.66 127.156C141.02 127.156 140.504 127.297 140.113 127.578C139.723 127.852 139.527 128.215 139.527 128.668C139.527 129.355 140.121 129.844 141.309 130.133L143.523 130.625C144.766 130.914 145.652 131.32 146.184 131.844C146.715 132.367 146.98 133.09 146.98 134.012C146.98 135.184 146.488 136.133 145.504 136.859C144.52 137.578 143.242 137.938 141.672 137.938C140.125 137.938 138.879 137.586 137.934 136.883C136.996 136.172 136.477 135.223 136.375 134.035H139.246C139.332 134.605 139.59 135.043 140.02 135.348C140.457 135.652 141.043 135.805 141.777 135.805C142.488 135.805 143.047 135.672 143.453 135.406C143.867 135.133 144.074 134.766 144.074 134.305C144.074 133.945 143.945 133.66 143.688 133.449C143.438 133.23 143.012 133.043 142.41 132.887L140.148 132.359C137.844 131.82 136.691 130.645 136.691 128.832ZM158.723 136.215C157.637 137.363 156.176 137.938 154.34 137.938C152.504 137.938 151.043 137.363 149.957 136.215C148.871 135.059 148.328 133.48 148.328 131.48C148.328 129.488 148.875 127.914 149.969 126.758C151.062 125.594 152.52 125.012 154.34 125.012C156.168 125.012 157.625 125.594 158.711 126.758C159.805 127.914 160.352 129.488 160.352 131.48C160.352 133.48 159.809 135.059 158.723 136.215ZM152.113 134.539C152.66 135.266 153.402 135.629 154.34 135.629C155.277 135.629 156.02 135.266 156.566 134.539C157.113 133.812 157.387 132.793 157.387 131.48C157.387 130.176 157.113 129.16 156.566 128.434C156.02 127.699 155.277 127.332 154.34 127.332C153.41 127.332 152.668 127.699 152.113 128.434C151.566 129.16 151.293 130.176 151.293 131.48C151.293 132.793 151.566 133.812 152.113 134.539ZM162.227 137.691V125.27H165.027V127.426H165.086C165.359 126.691 165.809 126.109 166.434 125.68C167.059 125.25 167.789 125.035 168.625 125.035C169.5 125.035 170.238 125.254 170.84 125.691C171.449 126.121 171.867 126.734 172.094 127.531H172.164C172.461 126.766 172.953 126.16 173.641 125.715C174.336 125.262 175.133 125.035 176.031 125.035C177.258 125.035 178.238 125.414 178.973 126.172C179.715 126.93 180.086 127.93 180.086 129.172V137.691H177.168V129.887C177.168 129.121 176.973 128.531 176.582 128.117C176.199 127.703 175.652 127.496 174.941 127.496C174.238 127.496 173.668 127.73 173.23 128.199C172.793 128.668 172.574 129.273 172.574 130.016V137.691H169.738V129.734C169.738 129.047 169.539 128.504 169.141 128.105C168.75 127.699 168.215 127.496 167.535 127.496C166.832 127.496 166.258 127.742 165.812 128.234C165.367 128.719 165.145 129.336 165.145 130.086V137.691H162.227ZM187.785 127.273C186.973 127.273 186.293 127.555 185.746 128.117C185.207 128.672 184.906 129.387 184.844 130.262H190.645C190.613 129.379 190.336 128.66 189.812 128.105C189.289 127.551 188.613 127.273 187.785 127.273ZM190.656 133.977H193.387C193.199 135.156 192.602 136.113 191.594 136.848C190.586 137.574 189.352 137.938 187.891 137.938C186.031 137.938 184.57 137.367 183.508 136.227C182.445 135.078 181.914 133.512 181.914 131.527C181.914 129.559 182.441 127.98 183.496 126.793C184.559 125.605 185.984 125.012 187.773 125.012C189.531 125.012 190.926 125.578 191.957 126.711C192.988 127.836 193.504 129.344 193.504 131.234V132.184H184.82V132.359C184.82 133.359 185.102 134.164 185.664 134.773C186.234 135.383 186.996 135.688 187.949 135.688C188.621 135.688 189.199 135.535 189.684 135.23C190.176 134.918 190.5 134.5 190.656 133.977Z" fill="black"/>
<path d="M49.8086 161.98H52.3984C52.5859 163.656 54.2148 164.758 56.4414 164.758C58.5742 164.758 60.1094 163.656 60.1094 162.145C60.1094 160.832 59.1836 160.047 56.9922 159.508L54.8008 158.98C51.6953 158.23 50.2539 156.777 50.2539 154.422C50.2539 151.504 52.7969 149.5 56.4062 149.5C59.9805 149.5 62.4297 151.504 62.5117 154.422H59.957C59.8047 152.734 58.4102 151.715 56.3711 151.715C54.332 151.715 52.9375 152.746 52.9375 154.246C52.9375 155.441 53.8281 156.145 56.0078 156.684L57.8711 157.141C61.3398 157.961 62.7812 159.355 62.7812 161.828C62.7812 164.992 60.2617 166.973 56.2539 166.973C52.5039 166.973 49.9727 165.039 49.8086 161.98ZM69.9883 156.18C68.2188 156.18 66.9766 157.527 66.8477 159.391H73.0117C72.9531 157.504 71.7578 156.18 69.9883 156.18ZM73 163.07H75.4023C75.0508 165.32 72.918 166.926 70.0938 166.926C66.4727 166.926 64.2812 164.477 64.2812 160.586C64.2812 156.719 66.5078 154.141 69.9883 154.141C73.4102 154.141 75.543 156.555 75.543 160.293V161.16H66.8359V161.312C66.8359 163.457 68.125 164.875 70.1523 164.875C71.5938 164.875 72.6602 164.148 73 163.07ZM77.5117 166.691V154.363H79.9258V156.438H79.9844C80.5352 155.066 81.8242 154.152 83.4883 154.152C85.1992 154.152 86.4414 155.031 86.9336 156.566H86.9922C87.625 155.066 89.0781 154.152 90.8359 154.152C93.2734 154.152 94.8672 155.77 94.8672 158.219V166.691H92.3242V158.828C92.3242 157.234 91.4688 156.32 89.9688 156.32C88.4688 156.32 87.4258 157.434 87.4258 158.992V166.691H84.9414V158.641C84.9414 157.223 84.0391 156.32 82.6094 156.32C81.1094 156.32 80.043 157.492 80.043 159.074V166.691H77.5117ZM101.629 164.898C103.398 164.898 104.781 163.68 104.781 162.074V161.102L101.746 161.289C100.234 161.395 99.3789 162.062 99.3789 163.117C99.3789 164.195 100.27 164.898 101.629 164.898ZM100.926 166.902C98.5117 166.902 96.8242 165.402 96.8242 163.188C96.8242 161.031 98.4766 159.707 101.406 159.543L104.781 159.344V158.395C104.781 157.023 103.855 156.203 102.309 156.203C100.844 156.203 99.9297 156.906 99.707 158.008H97.3164C97.457 155.781 99.3555 154.141 102.402 154.141C105.391 154.141 107.301 155.723 107.301 158.195V166.691H104.875V164.664H104.816C104.102 166.035 102.543 166.902 100.926 166.902ZM109.762 166.691V154.363H112.176V156.426H112.234C112.902 155.02 114.215 154.152 116.113 154.152C118.832 154.152 120.391 155.887 120.391 158.711V166.691H117.848V159.203C117.848 157.352 116.98 156.332 115.223 156.332C113.441 156.332 112.293 157.598 112.293 159.508V166.691H109.762ZM123.578 151.445H126.121V154.363H128.465V156.367H126.121V163.164C126.121 164.23 126.59 164.711 127.621 164.711C127.879 164.711 128.289 164.688 128.453 164.652V166.656C128.172 166.727 127.609 166.773 127.047 166.773C124.551 166.773 123.578 165.824 123.578 163.445V156.367H121.785V154.363H123.578V151.445ZM130.633 166.691V154.363H133.164V166.691H130.633ZM131.898 152.559C131.09 152.559 130.434 151.914 130.434 151.117C130.434 150.309 131.09 149.664 131.898 149.664C132.719 149.664 133.375 150.309 133.375 151.117C133.375 151.914 132.719 152.559 131.898 152.559ZM146.336 158.605H143.922C143.664 157.293 142.68 156.25 141.027 156.25C139.07 156.25 137.781 157.879 137.781 160.527C137.781 163.234 139.082 164.805 141.051 164.805C142.609 164.805 143.629 163.949 143.922 162.52H146.359C146.09 165.145 143.992 166.926 141.027 166.926C137.5 166.926 135.203 164.512 135.203 160.527C135.203 156.613 137.5 154.141 141.004 154.141C144.18 154.141 146.113 156.18 146.336 158.605ZM160.469 166.973C155.723 166.973 152.723 163.621 152.723 158.23C152.723 152.875 155.746 149.5 160.469 149.5C164.301 149.5 167.195 151.855 167.641 155.383H165.039C164.57 153.215 162.766 151.797 160.469 151.797C157.398 151.797 155.406 154.316 155.406 158.23C155.406 162.18 157.375 164.676 160.48 164.676C162.836 164.676 164.512 163.469 165.039 161.43H167.652C167.008 164.922 164.359 166.973 160.469 166.973ZM175.012 166.926C171.484 166.926 169.164 164.5 169.164 160.527C169.164 156.566 171.496 154.141 175.012 154.141C178.527 154.141 180.859 156.566 180.859 160.527C180.859 164.5 178.539 166.926 175.012 166.926ZM175.012 164.84C177.004 164.84 178.281 163.27 178.281 160.527C178.281 157.797 176.992 156.227 175.012 156.227C173.031 156.227 171.742 157.797 171.742 160.527C171.742 163.27 173.031 164.84 175.012 164.84ZM182.816 166.691V154.363H185.23V156.438H185.289C185.84 155.066 187.129 154.152 188.793 154.152C190.504 154.152 191.746 155.031 192.238 156.566H192.297C192.93 155.066 194.383 154.152 196.141 154.152C198.578 154.152 200.172 155.77 200.172 158.219V166.691H197.629V158.828C197.629 157.234 196.773 156.32 195.273 156.32C193.773 156.32 192.73 157.434 192.73 158.992V166.691H190.246V158.641C190.246 157.223 189.344 156.32 187.914 156.32C186.414 156.32 185.348 157.492 185.348 159.074V166.691H182.816ZM202.621 166.691V154.363H205.035V156.438H205.094C205.645 155.066 206.934 154.152 208.598 154.152C210.309 154.152 211.551 155.031 212.043 156.566H212.102C212.734 155.066 214.188 154.152 215.945 154.152C218.383 154.152 219.977 155.77 219.977 158.219V166.691H217.434V158.828C217.434 157.234 216.578 156.32 215.078 156.32C213.578 156.32 212.535 157.434 212.535 158.992V166.691H210.051V158.641C210.051 157.223 209.148 156.32 207.719 156.32C206.219 156.32 205.152 157.492 205.152 159.074V166.691H202.621ZM222.508 166.691V154.363H225.039V166.691H222.508ZM223.773 152.559C222.965 152.559 222.309 151.914 222.309 151.117C222.309 150.309 222.965 149.664 223.773 149.664C224.594 149.664 225.25 150.309 225.25 151.117C225.25 151.914 224.594 152.559 223.773 152.559ZM228.367 151.445H230.91V154.363H233.254V156.367H230.91V163.164C230.91 164.23 231.379 164.711 232.41 164.711C232.668 164.711 233.078 164.688 233.242 164.652V166.656C232.961 166.727 232.398 166.773 231.836 166.773C229.34 166.773 228.367 165.824 228.367 163.445V156.367H226.574V154.363H228.367V151.445Z" fill="black"/>
<path d="M31.2314 244.317H35.4941C39.2559 244.317 41.4795 246.664 41.4795 250.654C41.4795 254.653 39.2646 257 35.4941 257H31.2314V244.317ZM32.8135 245.741V255.576H35.3887C38.2627 255.576 39.8623 253.818 39.8623 250.672C39.8623 247.499 38.2715 245.741 35.3887 245.741H32.8135ZM50.7168 247.859V257H49.2666V255.515H49.2314C48.6865 256.569 47.7373 257.158 46.3311 257.158C44.3359 257.158 43.167 255.866 43.167 253.792V247.859H44.6963V253.52C44.6963 255.005 45.3906 255.805 46.8057 255.805C48.291 255.805 49.1875 254.785 49.1875 253.229V247.859H50.7168ZM45.3027 246.427C44.7754 246.427 44.3359 245.996 44.3359 245.46C44.3359 244.924 44.7754 244.493 45.3027 244.493C45.8301 244.493 46.2695 244.924 46.2695 245.46C46.2695 245.996 45.8301 246.427 45.3027 246.427ZM48.5723 246.427C48.0449 246.427 47.6055 245.996 47.6055 245.46C47.6055 244.924 48.0449 244.493 48.5723 244.493C49.0996 244.493 49.5391 244.924 49.5391 245.46C49.5391 245.996 49.0996 246.427 48.5723 246.427ZM52.5098 257V255.91L57.5723 249.143V249.116H52.5186V247.859H59.3037V248.976L54.2764 255.717V255.743H59.3301V257H52.5098ZM64.4365 249.028C63.0039 249.028 62.002 250.127 61.9053 251.647H66.8711C66.8359 250.118 65.8779 249.028 64.4365 249.028ZM66.8359 254.381H68.3389C68.0752 255.98 66.5283 257.158 64.5332 257.158C61.9141 257.158 60.3232 255.339 60.3232 252.465C60.3232 249.626 61.9404 247.701 64.4629 247.701C66.9326 247.701 68.4531 249.494 68.4531 252.263V252.843H61.8965V252.931C61.8965 254.68 62.9248 255.831 64.5684 255.831C65.7285 255.831 66.5811 255.242 66.8359 254.381ZM70 257V247.859H71.4414V249.318H71.4766C71.9863 248.334 72.9619 247.701 74.377 247.701C76.3809 247.701 77.541 248.993 77.541 251.067V257H76.0117V251.34C76.0117 249.863 75.3174 249.055 73.9111 249.055C72.4697 249.055 71.5293 250.074 71.5293 251.621V257H70ZM79.5713 257V244.317H81.1006V257H79.5713ZM83.2451 257V247.859H84.7744V257H83.2451ZM84.0098 246.321C83.4912 246.321 83.0605 245.891 83.0605 245.372C83.0605 244.845 83.4912 244.423 84.0098 244.423C84.5371 244.423 84.9678 244.845 84.9678 245.372C84.9678 245.891 84.5371 246.321 84.0098 246.321ZM229.214 257V247.859H230.743V257H229.214ZM229.979 246.321C229.46 246.321 229.029 245.891 229.029 245.372C229.029 244.845 229.46 244.423 229.979 244.423C230.506 244.423 230.937 244.845 230.937 245.372C230.937 245.891 230.506 246.321 229.979 246.321ZM238.917 254.056H240.42C240.209 255.682 238.961 256.886 237.212 257.114L236.772 258.143C237.915 258.16 238.653 258.652 238.653 259.549C238.653 260.551 237.739 261.096 236.597 261.113C236.087 261.122 235.507 261.061 235.278 260.99V260.094C235.472 260.138 236.008 260.199 236.377 260.199C237.106 260.199 237.493 259.971 237.493 259.566C237.493 259.162 237.106 259.004 236.21 259.004H235.595V258.397L236.096 257.132C233.837 256.921 232.36 255.181 232.36 252.43C232.36 249.547 234.039 247.701 236.562 247.701C238.847 247.701 240.209 249.213 240.402 250.856H238.908C238.688 249.863 237.915 249.046 236.57 249.046C234.988 249.046 233.916 250.355 233.916 252.43C233.916 254.557 235.006 255.813 236.588 255.813C237.836 255.813 238.653 255.154 238.917 254.056ZM241.905 257V247.859H243.435V257H241.905ZM242.67 246.321C242.151 246.321 241.721 245.891 241.721 245.372C241.721 244.845 242.151 244.423 242.67 244.423C243.197 244.423 243.628 244.845 243.628 245.372C243.628 245.891 243.197 246.321 242.67 246.321ZM245.5 257V247.859H246.941V249.318H246.977C247.486 248.334 248.462 247.701 249.877 247.701C251.881 247.701 253.041 248.993 253.041 251.067V257H251.512V251.34C251.512 249.863 250.817 249.055 249.411 249.055C247.97 249.055 247.029 250.074 247.029 251.621V257H245.5ZM118.586 278V268.859H120.027V270.354H120.062C120.361 269.343 121.205 268.701 122.277 268.701C122.541 268.701 122.77 268.745 122.893 268.763V270.248C122.77 270.204 122.444 270.16 122.075 270.16C120.889 270.16 120.115 271.013 120.115 272.305V278H118.586ZM127.366 270.028C125.934 270.028 124.932 271.127 124.835 272.647H129.801C129.766 271.118 128.808 270.028 127.366 270.028ZM129.766 275.381H131.269C131.005 276.98 129.458 278.158 127.463 278.158C124.844 278.158 123.253 276.339 123.253 273.465C123.253 270.626 124.87 268.701 127.393 268.701C129.862 268.701 131.383 270.494 131.383 273.263V273.843H124.826V273.931C124.826 275.68 125.854 276.831 127.498 276.831C128.658 276.831 129.511 276.242 129.766 275.381ZM133.009 278V265.317H134.538V270.318H134.573C135.083 269.299 136.085 268.701 137.474 268.701C139.478 268.701 140.69 270.055 140.69 272.094V278H139.161V272.375C139.161 270.925 138.432 270.055 136.999 270.055C135.479 270.055 134.538 271.092 134.538 272.674V278H133.009ZM147.177 278.158C145.841 278.158 144.795 277.508 144.206 276.453H144.171V278H142.712V265.317H144.241V270.389H144.276C144.848 269.343 145.911 268.701 147.203 268.701C149.506 268.701 151.062 270.564 151.062 273.43C151.062 276.304 149.515 278.158 147.177 278.158ZM146.878 270.046C145.331 270.046 144.232 271.399 144.232 273.43C144.232 275.469 145.331 276.813 146.878 276.813C148.495 276.813 149.497 275.521 149.497 273.43C149.497 271.355 148.495 270.046 146.878 270.046ZM156.282 270.028C154.85 270.028 153.848 271.127 153.751 272.647H158.717C158.682 271.118 157.724 270.028 156.282 270.028ZM158.682 275.381H160.185C159.921 276.98 158.374 278.158 156.379 278.158C153.76 278.158 152.169 276.339 152.169 273.465C152.169 270.626 153.786 268.701 156.309 268.701C158.778 268.701 160.299 270.494 160.299 273.263V273.843H153.742V273.931C153.742 275.68 154.771 276.831 156.414 276.831C157.574 276.831 158.427 276.242 158.682 275.381ZM161.846 278V268.859H163.287V270.354H163.322C163.621 269.343 164.465 268.701 165.537 268.701C165.801 268.701 166.029 268.745 166.152 268.763V270.248C166.029 270.204 165.704 270.16 165.335 270.16C164.148 270.16 163.375 271.013 163.375 272.305V278H161.846Z" fill="black"/>
<path d="M98.6436 251.006H96.5781C96.4844 250.484 96.2617 250.065 95.9102 249.749C95.5586 249.427 95.1016 249.266 94.5391 249.266C93.8477 249.266 93.2969 249.541 92.8867 250.092C92.4766 250.637 92.2715 251.387 92.2715 252.342C92.2715 253.309 92.4766 254.064 92.8867 254.609C93.2969 255.148 93.8535 255.418 94.5566 255.418C95.1074 255.418 95.5586 255.271 95.9102 254.979C96.2617 254.68 96.4873 254.264 96.5869 253.73H98.6523C98.5645 254.773 98.1455 255.611 97.3955 256.244C96.6514 256.871 95.6963 257.185 94.5303 257.185C93.1592 257.185 92.0693 256.754 91.2607 255.893C90.4521 255.025 90.0479 253.842 90.0479 252.342C90.0479 250.859 90.4521 249.682 91.2607 248.809C92.0693 247.93 93.1533 247.49 94.5127 247.49C95.708 247.49 96.6748 247.824 97.4131 248.492C98.1572 249.154 98.5674 249.992 98.6436 251.006ZM107.371 255.893C106.557 256.754 105.461 257.185 104.084 257.185C102.707 257.185 101.611 256.754 100.797 255.893C99.9824 255.025 99.5752 253.842 99.5752 252.342C99.5752 250.848 99.9854 249.667 100.806 248.8C101.626 247.927 102.719 247.49 104.084 247.49C105.455 247.49 106.548 247.927 107.362 248.8C108.183 249.667 108.593 250.848 108.593 252.342C108.593 253.842 108.186 255.025 107.371 255.893ZM102.414 254.636C102.824 255.181 103.381 255.453 104.084 255.453C104.787 255.453 105.344 255.181 105.754 254.636C106.164 254.091 106.369 253.326 106.369 252.342C106.369 251.363 106.164 250.602 105.754 250.057C105.344 249.506 104.787 249.23 104.084 249.23C103.387 249.23 102.83 249.506 102.414 250.057C102.004 250.602 101.799 251.363 101.799 252.342C101.799 253.326 102.004 254.091 102.414 254.636ZM109.999 257V247.684H112.1V249.301H112.144C112.349 248.75 112.686 248.313 113.154 247.991C113.623 247.669 114.171 247.508 114.798 247.508C115.454 247.508 116.008 247.672 116.459 248C116.916 248.322 117.229 248.782 117.399 249.38H117.452C117.675 248.806 118.044 248.352 118.56 248.018C119.081 247.678 119.679 247.508 120.353 247.508C121.272 247.508 122.008 247.792 122.559 248.36C123.115 248.929 123.394 249.679 123.394 250.61V257H121.205V251.146C121.205 250.572 121.059 250.13 120.766 249.819C120.479 249.509 120.068 249.354 119.535 249.354C119.008 249.354 118.58 249.529 118.252 249.881C117.924 250.232 117.76 250.687 117.76 251.243V257H115.633V251.032C115.633 250.517 115.483 250.109 115.185 249.811C114.892 249.506 114.49 249.354 113.98 249.354C113.453 249.354 113.022 249.538 112.688 249.907C112.354 250.271 112.188 250.733 112.188 251.296V257H109.999ZM125.151 257V247.684H127.252V249.301H127.296C127.501 248.75 127.838 248.313 128.307 247.991C128.775 247.669 129.323 247.508 129.95 247.508C130.606 247.508 131.16 247.672 131.611 248C132.068 248.322 132.382 248.782 132.552 249.38H132.604C132.827 248.806 133.196 248.352 133.712 248.018C134.233 247.678 134.831 247.508 135.505 247.508C136.425 247.508 137.16 247.792 137.711 248.36C138.268 248.929 138.546 249.679 138.546 250.61V257H136.357V251.146C136.357 250.572 136.211 250.13 135.918 249.819C135.631 249.509 135.221 249.354 134.688 249.354C134.16 249.354 133.732 249.529 133.404 249.881C133.076 250.232 132.912 250.687 132.912 251.243V257H130.785V251.032C130.785 250.517 130.636 250.109 130.337 249.811C130.044 249.506 129.643 249.354 129.133 249.354C128.605 249.354 128.175 249.538 127.841 249.907C127.507 250.271 127.34 250.733 127.34 251.296V257H125.151ZM140.356 257V247.684H142.545V257H140.356ZM142.308 246.119C142.073 246.348 141.786 246.462 141.446 246.462C141.106 246.462 140.819 246.348 140.585 246.119C140.351 245.885 140.233 245.604 140.233 245.275C140.233 244.941 140.351 244.66 140.585 244.432C140.819 244.197 141.106 244.08 141.446 244.08C141.786 244.08 142.073 244.197 142.308 244.432C142.548 244.66 142.668 244.941 142.668 245.275C142.668 245.604 142.548 245.885 142.308 246.119ZM144.988 245.504H147.177V247.684H148.935V249.371H147.177V254.214C147.177 254.595 147.268 254.876 147.449 255.058C147.631 255.239 147.915 255.33 148.302 255.33C148.56 255.33 148.768 255.315 148.926 255.286V256.956C148.662 257.015 148.284 257.044 147.792 257.044C146.784 257.044 146.063 256.851 145.63 256.464C145.202 256.077 144.988 255.43 144.988 254.521V249.371H143.652V247.684H144.988V245.504ZM154.032 257V247.684H156.133V249.301H156.177C156.382 248.75 156.719 248.313 157.188 247.991C157.656 247.669 158.204 247.508 158.831 247.508C159.487 247.508 160.041 247.672 160.492 248C160.949 248.322 161.263 248.782 161.433 249.38H161.485C161.708 248.806 162.077 248.352 162.593 248.018C163.114 247.678 163.712 247.508 164.386 247.508C165.306 247.508 166.041 247.792 166.592 248.36C167.148 248.929 167.427 249.679 167.427 250.61V257H165.238V251.146C165.238 250.572 165.092 250.13 164.799 249.819C164.512 249.509 164.102 249.354 163.568 249.354C163.041 249.354 162.613 249.529 162.285 249.881C161.957 250.232 161.793 250.687 161.793 251.243V257H159.666V251.032C159.666 250.517 159.517 250.109 159.218 249.811C158.925 249.506 158.523 249.354 158.014 249.354C157.486 249.354 157.056 249.538 156.722 249.907C156.388 250.271 156.221 250.733 156.221 251.296V257H154.032ZM173.201 249.187C172.592 249.187 172.082 249.397 171.672 249.819C171.268 250.235 171.042 250.771 170.995 251.428H175.346C175.322 250.766 175.114 250.227 174.722 249.811C174.329 249.395 173.822 249.187 173.201 249.187ZM175.354 254.214H177.402C177.262 255.099 176.813 255.816 176.058 256.367C175.302 256.912 174.376 257.185 173.28 257.185C171.886 257.185 170.79 256.757 169.993 255.901C169.196 255.04 168.798 253.865 168.798 252.377C168.798 250.9 169.193 249.717 169.984 248.826C170.781 247.936 171.851 247.49 173.192 247.49C174.511 247.49 175.557 247.915 176.33 248.765C177.104 249.608 177.49 250.739 177.49 252.157V252.869H170.978V253.001C170.978 253.751 171.188 254.354 171.61 254.812C172.038 255.269 172.609 255.497 173.324 255.497C173.828 255.497 174.262 255.383 174.625 255.154C174.994 254.92 175.237 254.606 175.354 254.214ZM178.738 250.355C178.738 249.5 179.084 248.809 179.775 248.281C180.467 247.754 181.378 247.49 182.509 247.49C183.599 247.49 184.483 247.76 185.163 248.299C185.849 248.832 186.206 249.529 186.235 250.391H184.196C184.161 249.986 183.991 249.67 183.687 249.441C183.382 249.213 182.975 249.099 182.465 249.099C181.984 249.099 181.598 249.204 181.305 249.415C181.012 249.62 180.865 249.893 180.865 250.232C180.865 250.748 181.311 251.114 182.201 251.331L183.862 251.7C184.794 251.917 185.459 252.222 185.857 252.614C186.256 253.007 186.455 253.549 186.455 254.24C186.455 255.119 186.086 255.831 185.348 256.376C184.609 256.915 183.651 257.185 182.474 257.185C181.313 257.185 180.379 256.921 179.67 256.394C178.967 255.86 178.577 255.148 178.501 254.258H180.654C180.719 254.686 180.912 255.014 181.234 255.242C181.562 255.471 182.002 255.585 182.553 255.585C183.086 255.585 183.505 255.485 183.81 255.286C184.12 255.081 184.275 254.806 184.275 254.46C184.275 254.19 184.179 253.977 183.985 253.818C183.798 253.654 183.479 253.514 183.027 253.396L181.331 253.001C179.603 252.597 178.738 251.715 178.738 250.355ZM191.254 255.497C191.881 255.497 192.408 255.312 192.836 254.943C193.27 254.568 193.486 254.103 193.486 253.546V252.834L191.333 252.966C190.806 253.001 190.396 253.133 190.103 253.361C189.815 253.584 189.672 253.88 189.672 254.249C189.672 254.63 189.815 254.935 190.103 255.163C190.396 255.386 190.779 255.497 191.254 255.497ZM190.595 257.149C189.687 257.149 188.939 256.889 188.354 256.367C187.773 255.846 187.483 255.169 187.483 254.337C187.483 253.511 187.788 252.857 188.397 252.377C189.013 251.896 189.889 251.621 191.025 251.551L193.486 251.41V250.742C193.486 250.256 193.331 249.878 193.021 249.608C192.716 249.339 192.291 249.204 191.746 249.204C191.236 249.204 190.82 249.318 190.498 249.547C190.176 249.775 189.979 250.086 189.909 250.479H187.879C187.926 249.594 188.304 248.876 189.013 248.325C189.728 247.769 190.668 247.49 191.834 247.49C192.988 247.49 193.911 247.771 194.603 248.334C195.3 248.896 195.648 249.646 195.648 250.584V257H193.539V255.515H193.495C193.231 256.013 192.833 256.411 192.3 256.71C191.767 257.003 191.198 257.149 190.595 257.149ZM199.656 247.684V257.439C199.656 259.326 198.596 260.27 196.475 260.27C196.217 260.27 196.035 260.264 195.93 260.252V258.582C195.959 258.588 196.056 258.591 196.22 258.591C196.671 258.591 196.99 258.5 197.178 258.318C197.371 258.137 197.468 257.832 197.468 257.404V247.684H199.656ZM199.419 246.119C199.185 246.348 198.897 246.462 198.558 246.462C198.218 246.462 197.931 246.348 197.696 246.119C197.462 245.885 197.345 245.604 197.345 245.275C197.345 244.941 197.462 244.66 197.696 244.432C197.931 244.197 198.218 244.08 198.558 244.08C198.897 244.08 199.185 244.197 199.419 244.432C199.659 244.66 199.779 244.941 199.779 245.275C199.779 245.604 199.659 245.885 199.419 246.119ZM201.555 257V244.317H203.743V257H201.555ZM209.008 255.497C209.635 255.497 210.162 255.312 210.59 254.943C211.023 254.568 211.24 254.103 211.24 253.546V252.834L209.087 252.966C208.56 253.001 208.149 253.133 207.856 253.361C207.569 253.584 207.426 253.88 207.426 254.249C207.426 254.63 207.569 254.935 207.856 255.163C208.149 255.386 208.533 255.497 209.008 255.497ZM208.349 257.149C207.44 257.149 206.693 256.889 206.107 256.367C205.527 255.846 205.237 255.169 205.237 254.337C205.237 253.511 205.542 252.857 206.151 252.377C206.767 251.896 207.643 251.621 208.779 251.551L211.24 251.41V250.742C211.24 250.256 211.085 249.878 210.774 249.608C210.47 249.339 210.045 249.204 209.5 249.204C208.99 249.204 208.574 249.318 208.252 249.547C207.93 249.775 207.733 250.086 207.663 250.479H205.633C205.68 249.594 206.058 248.876 206.767 248.325C207.481 247.769 208.422 247.49 209.588 247.49C210.742 247.49 211.665 247.771 212.356 248.334C213.054 248.896 213.402 249.646 213.402 250.584V257H211.293V255.515H211.249C210.985 256.013 210.587 256.411 210.054 256.71C209.521 257.003 208.952 257.149 208.349 257.149ZM215.169 257V247.684H217.27V249.31H217.313C217.472 248.741 217.744 248.302 218.131 247.991C218.523 247.681 218.995 247.525 219.546 247.525C219.739 247.525 219.968 247.555 220.231 247.613V249.591C220.015 249.509 219.719 249.468 219.344 249.468C218.723 249.468 218.236 249.655 217.885 250.03C217.533 250.405 217.357 250.921 217.357 251.577V257H215.169ZM221.409 257V247.684H223.598V257H221.409Z" fill="url(#paint3_linear_3218_1757)"/>
<defs>
<linearGradient id="paint0_linear_3218_1757" x1="0" y1="159" x2="284" y2="159" gradientUnits="userSpaceOnUse">
<stop stop-color="#637AFA"/>
<stop offset="1" stop-color="#37448C"/>
</linearGradient>
<linearGradient id="paint1_linear_3218_1757" x1="7" y1="209.691" x2="226" y2="209.691" gradientUnits="userSpaceOnUse">
<stop stop-color="#637AFA"/>
<stop offset="1" stop-color="#38458E"/>
</linearGradient>
<linearGradient id="paint2_linear_3218_1757" x1="142" y1="30" x2="142" y2="109.691" gradientUnits="userSpaceOnUse">
<stop stop-color="#637AFA"/>
<stop offset="1" stop-color="#405CF6"/>
</linearGradient>
<linearGradient id="paint3_linear_3218_1757" x1="133.403" y1="261" x2="264" y2="261" gradientUnits="userSpaceOnUse">
<stop stop-color="#FF8700"/>
<stop offset="1" stop-color="#C06600"/>
</linearGradient>
</defs>
</svg>
