<svg width="284" height="297" viewBox="0 0 284 297" fill="none" xmlns="http://www.w3.org/2000/svg">
<rect x="3.5" y="3.5" width="277" height="290" rx="11.5" fill="white"/>
<rect x="3.5" y="3.5" width="277" height="290" rx="11.5" stroke="url(#paint0_linear_3218_1802)" stroke-width="7"/>
<rect x="7" y="202.691" width="270" height="7" fill="url(#paint1_linear_3218_1802)"/>
<path d="M173.091 30H110.908C106.079 30 102.164 33.916 102.164 38.7466V100.945C102.164 105.775 106.079 109.691 110.908 109.691H173.091C177.92 109.691 181.835 105.775 181.835 100.945V38.7466C181.835 33.916 177.92 30 173.091 30Z" fill="url(#paint2_linear_3218_1802)"/>
<mask id="mask0_3218_1802" style="mask-type:luminance" maskUnits="userSpaceOnUse" x="112" y="54" width="60" height="33">
<path d="M171.87 54.9033H112.117V86.0328H171.87V54.9033Z" fill="white"/>
</mask>
<g mask="url(#mask0_3218_1802)">
<path d="M156.335 56.1494C156.441 56.1494 156.547 56.1494 156.66 56.1719C157.989 57.3621 159.311 58.5309 160.636 59.6972C161.706 60.6398 162.784 61.5752 163.85 62.5217C165.538 64.0189 167.219 65.5226 168.903 67.0237C169.774 67.801 170.643 68.5816 171.523 69.3507C171.604 69.4217 171.753 69.4204 171.87 69.4528C171.87 72.9895 171.87 76.5261 171.842 80.0741C171.764 80.1778 171.699 80.2654 171.667 80.3632C171.2 81.7877 170.372 82.9725 169.168 83.9098C167.808 84.9693 166.262 85.6119 164.533 85.8479C164.481 85.8551 164.445 85.9694 164.401 86.0337C160.283 86.0337 156.164 86.0337 152.035 86.0042C151.942 85.9298 151.865 85.8547 151.779 85.8447C150.397 85.6841 149.124 85.2185 147.974 84.4803C145.619 82.968 144.307 80.8965 144.382 78.0827C144.424 76.5105 144.389 74.9364 144.389 73.3631C144.389 73.1928 144.389 73.0224 144.389 72.8514C142.761 72.8514 141.195 72.8514 139.597 72.8514C139.597 73.1047 139.601 73.3271 139.597 73.5493C139.565 75.5495 139.589 77.5526 139.478 79.5488C139.409 80.8055 138.789 81.9089 137.939 82.8527C136.422 84.5377 134.507 85.5375 132.211 85.8445C132.145 85.8535 132.093 85.9682 132.035 86.0337C127.916 86.0337 123.798 86.0337 119.667 86.0033C119.589 85.9295 119.528 85.8567 119.458 85.8471C118.189 85.6747 117.006 85.2764 115.908 84.6334C114.153 83.6067 112.859 82.2323 112.312 80.2734C112.297 80.2203 112.184 80.1927 112.117 80.1532C112.117 76.6487 112.117 73.1441 112.153 69.5973C112.656 69.1594 113.13 68.7702 113.591 68.3667C114.725 67.3733 115.855 66.3746 116.984 65.3758C118.539 64.0003 120.096 62.6262 121.645 61.2447C122.663 60.337 123.664 59.4117 124.683 58.505C125.189 58.0544 125.73 57.6402 126.233 57.1861C126.593 56.8608 126.915 56.4964 127.255 56.1494C127.361 56.1494 127.467 56.1494 127.576 56.1684C128.264 56.9255 128.948 57.6636 129.658 58.43C129.213 58.8128 128.817 59.1479 128.427 59.4902C127.306 60.4756 126.186 61.463 125.067 62.4515C123.511 63.8265 121.953 65.2002 120.402 66.5803C119.28 67.5781 118.167 68.5855 117.015 69.6204C133.678 69.6204 150.304 69.6204 166.964 69.6204C166.922 69.5562 166.906 69.513 166.874 69.4857C165.215 68.0348 163.549 66.5908 161.896 65.1337C160.909 64.2638 159.942 63.3726 158.964 62.4929C158.517 62.0912 158.069 61.6907 157.617 61.2955C156.529 60.3461 155.439 59.4002 154.319 58.4264C154.804 57.9298 155.267 57.4784 155.7 57.0014C155.938 56.7397 156.125 56.4348 156.335 56.1494ZM128.864 75.9581C128.174 74.6347 127.045 73.9783 125.535 74.09C123.839 74.2157 122.858 75.2242 122.413 76.7749C121.048 76.7749 119.704 76.7729 118.361 76.7759C117.903 76.777 117.581 77.132 117.714 77.5064C117.846 77.879 118.134 78.0401 118.549 78.0364C119.71 78.026 120.872 78.0429 122.033 78.0283C122.342 78.0245 122.491 78.1 122.578 78.4117C122.791 79.1727 123.3 79.7489 123.98 80.1579C125.876 81.2988 128.328 80.4499 129.045 78.3719C129.134 78.1149 129.254 78.0279 129.53 78.031C130.691 78.0435 131.852 78.0385 133.014 78.0315C133.531 78.0284 133.915 77.7612 133.929 77.4179C133.946 76.9805 133.665 76.7742 133.047 76.774C131.886 76.7738 130.724 76.7659 129.563 76.7812C129.271 76.785 129.096 76.719 129.048 76.4202C129.026 76.2818 128.96 76.15 128.864 75.9581ZM160.08 74.6439C158.269 73.3717 155.419 74.2154 154.765 76.7743C153.43 76.7743 152.088 76.7793 150.746 76.7713C150.336 76.7689 150.067 76.9135 150.058 77.334C150.049 77.7226 150.313 77.9406 150.759 77.9414C151.953 77.9438 153.147 77.9535 154.341 77.9353C154.655 77.9305 154.855 78.0236 154.924 78.3114C155.253 79.6975 156.919 80.7641 158.372 80.6598C159.668 80.5668 161.099 79.5859 161.406 78.3543C161.491 78.0147 161.638 77.9322 161.969 77.9365C163.163 77.952 164.357 77.9457 165.55 77.9414C166.016 77.9398 166.29 77.7147 166.288 77.3564C166.285 76.9861 166.024 76.7746 165.561 76.7742C164.335 76.7732 163.107 76.7663 161.881 76.7791C161.624 76.7817 161.487 76.7061 161.427 76.4666C161.237 75.7098 160.765 75.1367 160.08 74.6439Z" fill="white"/>
</g>
<path d="M102.039 137.691L100.598 133.32H94.375L92.9336 137.691H89.8164L95.8164 120.781H99.2266L105.227 137.691H102.039ZM97.4453 123.77L95.0781 130.988H99.8828L97.5273 123.77H97.4453ZM122.617 125.27L119.254 137.691H116.184L113.734 128.609H113.676L111.238 137.691H108.191L104.828 125.27H107.758L109.855 134.809H109.914L112.34 125.27H115.141L117.566 134.809H117.637L119.734 125.27H122.617ZM129.309 127.273C128.496 127.273 127.816 127.555 127.27 128.117C126.73 128.672 126.43 129.387 126.367 130.262H132.168C132.137 129.379 131.859 128.66 131.336 128.105C130.812 127.551 130.137 127.273 129.309 127.273ZM132.18 133.977H134.91C134.723 135.156 134.125 136.113 133.117 136.848C132.109 137.574 130.875 137.938 129.414 137.938C127.555 137.938 126.094 137.367 125.031 136.227C123.969 135.078 123.438 133.512 123.438 131.527C123.438 129.559 123.965 127.98 125.02 126.793C126.082 125.605 127.508 125.012 129.297 125.012C131.055 125.012 132.449 125.578 133.48 126.711C134.512 127.836 135.027 129.344 135.027 131.234V132.184H126.344V132.359C126.344 133.359 126.625 134.164 127.188 134.773C127.758 135.383 128.52 135.688 129.473 135.688C130.145 135.688 130.723 135.535 131.207 135.23C131.699 134.918 132.023 134.5 132.18 133.977ZM136.691 128.832C136.691 127.691 137.152 126.77 138.074 126.066C138.996 125.363 140.211 125.012 141.719 125.012C143.172 125.012 144.352 125.371 145.258 126.09C146.172 126.801 146.648 127.73 146.688 128.879H143.969C143.922 128.34 143.695 127.918 143.289 127.613C142.883 127.309 142.34 127.156 141.66 127.156C141.02 127.156 140.504 127.297 140.113 127.578C139.723 127.852 139.527 128.215 139.527 128.668C139.527 129.355 140.121 129.844 141.309 130.133L143.523 130.625C144.766 130.914 145.652 131.32 146.184 131.844C146.715 132.367 146.98 133.09 146.98 134.012C146.98 135.184 146.488 136.133 145.504 136.859C144.52 137.578 143.242 137.938 141.672 137.938C140.125 137.938 138.879 137.586 137.934 136.883C136.996 136.172 136.477 135.223 136.375 134.035H139.246C139.332 134.605 139.59 135.043 140.02 135.348C140.457 135.652 141.043 135.805 141.777 135.805C142.488 135.805 143.047 135.672 143.453 135.406C143.867 135.133 144.074 134.766 144.074 134.305C144.074 133.945 143.945 133.66 143.688 133.449C143.438 133.23 143.012 133.043 142.41 132.887L140.148 132.359C137.844 131.82 136.691 130.645 136.691 128.832ZM158.723 136.215C157.637 137.363 156.176 137.938 154.34 137.938C152.504 137.938 151.043 137.363 149.957 136.215C148.871 135.059 148.328 133.48 148.328 131.48C148.328 129.488 148.875 127.914 149.969 126.758C151.062 125.594 152.52 125.012 154.34 125.012C156.168 125.012 157.625 125.594 158.711 126.758C159.805 127.914 160.352 129.488 160.352 131.48C160.352 133.48 159.809 135.059 158.723 136.215ZM152.113 134.539C152.66 135.266 153.402 135.629 154.34 135.629C155.277 135.629 156.02 135.266 156.566 134.539C157.113 133.812 157.387 132.793 157.387 131.48C157.387 130.176 157.113 129.16 156.566 128.434C156.02 127.699 155.277 127.332 154.34 127.332C153.41 127.332 152.668 127.699 152.113 128.434C151.566 129.16 151.293 130.176 151.293 131.48C151.293 132.793 151.566 133.812 152.113 134.539ZM162.227 137.691V125.27H165.027V127.426H165.086C165.359 126.691 165.809 126.109 166.434 125.68C167.059 125.25 167.789 125.035 168.625 125.035C169.5 125.035 170.238 125.254 170.84 125.691C171.449 126.121 171.867 126.734 172.094 127.531H172.164C172.461 126.766 172.953 126.16 173.641 125.715C174.336 125.262 175.133 125.035 176.031 125.035C177.258 125.035 178.238 125.414 178.973 126.172C179.715 126.93 180.086 127.93 180.086 129.172V137.691H177.168V129.887C177.168 129.121 176.973 128.531 176.582 128.117C176.199 127.703 175.652 127.496 174.941 127.496C174.238 127.496 173.668 127.73 173.23 128.199C172.793 128.668 172.574 129.273 172.574 130.016V137.691H169.738V129.734C169.738 129.047 169.539 128.504 169.141 128.105C168.75 127.699 168.215 127.496 167.535 127.496C166.832 127.496 166.258 127.742 165.812 128.234C165.367 128.719 165.145 129.336 165.145 130.086V137.691H162.227ZM187.785 127.273C186.973 127.273 186.293 127.555 185.746 128.117C185.207 128.672 184.906 129.387 184.844 130.262H190.645C190.613 129.379 190.336 128.66 189.812 128.105C189.289 127.551 188.613 127.273 187.785 127.273ZM190.656 133.977H193.387C193.199 135.156 192.602 136.113 191.594 136.848C190.586 137.574 189.352 137.938 187.891 137.938C186.031 137.938 184.57 137.367 183.508 136.227C182.445 135.078 181.914 133.512 181.914 131.527C181.914 129.559 182.441 127.98 183.496 126.793C184.559 125.605 185.984 125.012 187.773 125.012C189.531 125.012 190.926 125.578 191.957 126.711C192.988 127.836 193.504 129.344 193.504 131.234V132.184H184.82V132.359C184.82 133.359 185.102 134.164 185.664 134.773C186.234 135.383 186.996 135.688 187.949 135.688C188.621 135.688 189.199 135.535 189.684 135.23C190.176 134.918 190.5 134.5 190.656 133.977Z" fill="black"/>
<path d="M49.8086 161.98H52.3984C52.5859 163.656 54.2148 164.758 56.4414 164.758C58.5742 164.758 60.1094 163.656 60.1094 162.145C60.1094 160.832 59.1836 160.047 56.9922 159.508L54.8008 158.98C51.6953 158.23 50.2539 156.777 50.2539 154.422C50.2539 151.504 52.7969 149.5 56.4062 149.5C59.9805 149.5 62.4297 151.504 62.5117 154.422H59.957C59.8047 152.734 58.4102 151.715 56.3711 151.715C54.332 151.715 52.9375 152.746 52.9375 154.246C52.9375 155.441 53.8281 156.145 56.0078 156.684L57.8711 157.141C61.3398 157.961 62.7812 159.355 62.7812 161.828C62.7812 164.992 60.2617 166.973 56.2539 166.973C52.5039 166.973 49.9727 165.039 49.8086 161.98ZM69.9883 156.18C68.2188 156.18 66.9766 157.527 66.8477 159.391H73.0117C72.9531 157.504 71.7578 156.18 69.9883 156.18ZM73 163.07H75.4023C75.0508 165.32 72.918 166.926 70.0938 166.926C66.4727 166.926 64.2812 164.477 64.2812 160.586C64.2812 156.719 66.5078 154.141 69.9883 154.141C73.4102 154.141 75.543 156.555 75.543 160.293V161.16H66.8359V161.312C66.8359 163.457 68.125 164.875 70.1523 164.875C71.5938 164.875 72.6602 164.148 73 163.07ZM77.5117 166.691V154.363H79.9258V156.438H79.9844C80.5352 155.066 81.8242 154.152 83.4883 154.152C85.1992 154.152 86.4414 155.031 86.9336 156.566H86.9922C87.625 155.066 89.0781 154.152 90.8359 154.152C93.2734 154.152 94.8672 155.77 94.8672 158.219V166.691H92.3242V158.828C92.3242 157.234 91.4688 156.32 89.9688 156.32C88.4688 156.32 87.4258 157.434 87.4258 158.992V166.691H84.9414V158.641C84.9414 157.223 84.0391 156.32 82.6094 156.32C81.1094 156.32 80.043 157.492 80.043 159.074V166.691H77.5117ZM101.629 164.898C103.398 164.898 104.781 163.68 104.781 162.074V161.102L101.746 161.289C100.234 161.395 99.3789 162.062 99.3789 163.117C99.3789 164.195 100.27 164.898 101.629 164.898ZM100.926 166.902C98.5117 166.902 96.8242 165.402 96.8242 163.188C96.8242 161.031 98.4766 159.707 101.406 159.543L104.781 159.344V158.395C104.781 157.023 103.855 156.203 102.309 156.203C100.844 156.203 99.9297 156.906 99.707 158.008H97.3164C97.457 155.781 99.3555 154.141 102.402 154.141C105.391 154.141 107.301 155.723 107.301 158.195V166.691H104.875V164.664H104.816C104.102 166.035 102.543 166.902 100.926 166.902ZM109.762 166.691V154.363H112.176V156.426H112.234C112.902 155.02 114.215 154.152 116.113 154.152C118.832 154.152 120.391 155.887 120.391 158.711V166.691H117.848V159.203C117.848 157.352 116.98 156.332 115.223 156.332C113.441 156.332 112.293 157.598 112.293 159.508V166.691H109.762ZM123.578 151.445H126.121V154.363H128.465V156.367H126.121V163.164C126.121 164.23 126.59 164.711 127.621 164.711C127.879 164.711 128.289 164.688 128.453 164.652V166.656C128.172 166.727 127.609 166.773 127.047 166.773C124.551 166.773 123.578 165.824 123.578 163.445V156.367H121.785V154.363H123.578V151.445ZM130.633 166.691V154.363H133.164V166.691H130.633ZM131.898 152.559C131.09 152.559 130.434 151.914 130.434 151.117C130.434 150.309 131.09 149.664 131.898 149.664C132.719 149.664 133.375 150.309 133.375 151.117C133.375 151.914 132.719 152.559 131.898 152.559ZM146.336 158.605H143.922C143.664 157.293 142.68 156.25 141.027 156.25C139.07 156.25 137.781 157.879 137.781 160.527C137.781 163.234 139.082 164.805 141.051 164.805C142.609 164.805 143.629 163.949 143.922 162.52H146.359C146.09 165.145 143.992 166.926 141.027 166.926C137.5 166.926 135.203 164.512 135.203 160.527C135.203 156.613 137.5 154.141 141.004 154.141C144.18 154.141 146.113 156.18 146.336 158.605ZM160.469 166.973C155.723 166.973 152.723 163.621 152.723 158.23C152.723 152.875 155.746 149.5 160.469 149.5C164.301 149.5 167.195 151.855 167.641 155.383H165.039C164.57 153.215 162.766 151.797 160.469 151.797C157.398 151.797 155.406 154.316 155.406 158.23C155.406 162.18 157.375 164.676 160.48 164.676C162.836 164.676 164.512 163.469 165.039 161.43H167.652C167.008 164.922 164.359 166.973 160.469 166.973ZM175.012 166.926C171.484 166.926 169.164 164.5 169.164 160.527C169.164 156.566 171.496 154.141 175.012 154.141C178.527 154.141 180.859 156.566 180.859 160.527C180.859 164.5 178.539 166.926 175.012 166.926ZM175.012 164.84C177.004 164.84 178.281 163.27 178.281 160.527C178.281 157.797 176.992 156.227 175.012 156.227C173.031 156.227 171.742 157.797 171.742 160.527C171.742 163.27 173.031 164.84 175.012 164.84ZM182.816 166.691V154.363H185.23V156.438H185.289C185.84 155.066 187.129 154.152 188.793 154.152C190.504 154.152 191.746 155.031 192.238 156.566H192.297C192.93 155.066 194.383 154.152 196.141 154.152C198.578 154.152 200.172 155.77 200.172 158.219V166.691H197.629V158.828C197.629 157.234 196.773 156.32 195.273 156.32C193.773 156.32 192.73 157.434 192.73 158.992V166.691H190.246V158.641C190.246 157.223 189.344 156.32 187.914 156.32C186.414 156.32 185.348 157.492 185.348 159.074V166.691H182.816ZM202.621 166.691V154.363H205.035V156.438H205.094C205.645 155.066 206.934 154.152 208.598 154.152C210.309 154.152 211.551 155.031 212.043 156.566H212.102C212.734 155.066 214.188 154.152 215.945 154.152C218.383 154.152 219.977 155.77 219.977 158.219V166.691H217.434V158.828C217.434 157.234 216.578 156.32 215.078 156.32C213.578 156.32 212.535 157.434 212.535 158.992V166.691H210.051V158.641C210.051 157.223 209.148 156.32 207.719 156.32C206.219 156.32 205.152 157.492 205.152 159.074V166.691H202.621ZM222.508 166.691V154.363H225.039V166.691H222.508ZM223.773 152.559C222.965 152.559 222.309 151.914 222.309 151.117C222.309 150.309 222.965 149.664 223.773 149.664C224.594 149.664 225.25 150.309 225.25 151.117C225.25 151.914 224.594 152.559 223.773 152.559ZM228.367 151.445H230.91V154.363H233.254V156.367H230.91V163.164C230.91 164.23 231.379 164.711 232.41 164.711C232.668 164.711 233.078 164.688 233.242 164.652V166.656C232.961 166.727 232.398 166.773 231.836 166.773C229.34 166.773 228.367 165.824 228.367 163.445V156.367H226.574V154.363H228.367V151.445Z" fill="black"/>
<path d="M27.4346 244.317H31.6973C35.459 244.317 37.6826 246.664 37.6826 250.654C37.6826 254.653 35.4678 257 31.6973 257H27.4346V244.317ZM29.0166 245.741V255.576H31.5918C34.4658 255.576 36.0654 253.818 36.0654 250.672C36.0654 247.499 34.4746 245.741 31.5918 245.741H29.0166ZM43.2021 257.158C40.6709 257.158 38.9658 255.339 38.9658 252.43C38.9658 249.512 40.6709 247.701 43.2021 247.701C45.7246 247.701 47.4297 249.512 47.4297 252.43C47.4297 255.339 45.7246 257.158 43.2021 257.158ZM43.2021 255.813C44.8193 255.813 45.874 254.583 45.874 252.43C45.874 250.276 44.8193 249.046 43.2021 249.046C41.585 249.046 40.5215 250.276 40.5215 252.43C40.5215 254.583 41.585 255.813 43.2021 255.813ZM56.5703 250.856H55.0762C54.8564 249.863 54.083 249.046 52.7383 249.046C51.1562 249.046 50.084 250.355 50.084 252.43C50.084 254.557 51.1738 255.813 52.7559 255.813C54.0039 255.813 54.8213 255.154 55.085 254.056H56.5879C56.3506 255.875 54.8213 257.158 52.7471 257.158C50.2158 257.158 48.5283 255.374 48.5283 252.43C48.5283 249.547 50.207 247.701 52.7295 247.701C55.0146 247.701 56.377 249.213 56.5703 250.856ZM65.5 247.859V257H64.0498V255.515H64.0146C63.4697 256.569 62.5205 257.158 61.1143 257.158C59.1191 257.158 57.9502 255.866 57.9502 253.792V247.859H59.4795V253.52C59.4795 255.005 60.1738 255.805 61.5889 255.805C63.0742 255.805 63.9707 254.785 63.9707 253.229V247.859H65.5ZM67.4863 257V247.859H68.9277V249.318H68.9629C69.3936 248.352 70.3252 247.701 71.5557 247.701C72.8037 247.701 73.7266 248.334 74.1221 249.441H74.1572C74.667 248.352 75.7393 247.701 77.0225 247.701C78.833 247.701 80.002 248.879 80.002 250.689V257H78.4727V251.041C78.4727 249.793 77.7783 249.055 76.5742 249.055C75.3613 249.055 74.5088 249.951 74.5088 251.19V257H72.9795V250.874C72.9795 249.775 72.2412 249.055 71.1074 249.055C69.8945 249.055 69.0156 250.004 69.0156 251.27V257H67.4863ZM85.6182 249.028C84.1855 249.028 83.1836 250.127 83.0869 251.647H88.0527C88.0176 250.118 87.0596 249.028 85.6182 249.028ZM88.0176 254.381H89.5205C89.2568 255.98 87.71 257.158 85.7148 257.158C83.0957 257.158 81.5049 255.339 81.5049 252.465C81.5049 249.626 83.1221 247.701 85.6445 247.701C88.1143 247.701 89.6348 249.494 89.6348 252.263V252.843H83.0781V252.931C83.0781 254.68 84.1064 255.831 85.75 255.831C86.9102 255.831 87.7627 255.242 88.0176 254.381ZM91.1816 257V247.859H92.623V249.318H92.6582C93.168 248.334 94.1436 247.701 95.5586 247.701C97.5625 247.701 98.7227 248.993 98.7227 251.067V257H97.1934V251.34C97.1934 249.863 96.499 249.055 95.0928 249.055C93.6514 249.055 92.7109 250.074 92.7109 251.621V257H91.1816ZM101.166 245.653H102.695V247.859H104.471V249.116H102.695V254.548C102.695 255.383 103.047 255.761 103.829 255.761C104.005 255.761 104.356 255.734 104.462 255.717V257C104.277 257.044 103.855 257.07 103.495 257.07C101.816 257.07 101.166 256.385 101.166 254.627V249.116H99.8037V247.859H101.166V245.653ZM108.944 255.857C110.386 255.857 111.493 254.847 111.493 253.528V252.781L109.05 252.931C107.819 253.01 107.116 253.555 107.116 254.416C107.116 255.286 107.846 255.857 108.944 255.857ZM108.602 257.158C106.782 257.158 105.561 256.06 105.561 254.416C105.561 252.852 106.765 251.867 108.874 251.744L111.493 251.595V250.83C111.493 249.714 110.755 249.046 109.489 249.046C108.312 249.046 107.573 249.6 107.38 250.496H105.903C106.009 248.914 107.362 247.701 109.524 247.701C111.669 247.701 113.022 248.861 113.022 250.681V257H111.572V255.427H111.537C110.992 256.473 109.832 257.158 108.602 257.158ZM115.457 245.653H116.986V247.859H118.762V249.116H116.986V254.548C116.986 255.383 117.338 255.761 118.12 255.761C118.296 255.761 118.647 255.734 118.753 255.717V257C118.568 257.044 118.146 257.07 117.786 257.07C116.107 257.07 115.457 256.385 115.457 254.627V249.116H114.095V247.859H115.457V245.653ZM120.476 257V247.859H122.005V257H120.476ZM121.24 246.321C120.722 246.321 120.291 245.891 120.291 245.372C120.291 244.845 120.722 244.423 121.24 244.423C121.768 244.423 122.198 244.845 122.198 245.372C122.198 245.891 121.768 246.321 121.24 246.321ZM127.858 257.158C125.327 257.158 123.622 255.339 123.622 252.43C123.622 249.512 125.327 247.701 127.858 247.701C130.381 247.701 132.086 249.512 132.086 252.43C132.086 255.339 130.381 257.158 127.858 257.158ZM127.858 255.813C129.476 255.813 130.53 254.583 130.53 252.43C130.53 250.276 129.476 249.046 127.858 249.046C126.241 249.046 125.178 250.276 125.178 252.43C125.178 254.583 126.241 255.813 127.858 255.813ZM133.633 257V247.859H135.074V249.318H135.109C135.619 248.334 136.595 247.701 138.01 247.701C140.014 247.701 141.174 248.993 141.174 251.067V257H139.645V251.34C139.645 249.863 138.95 249.055 137.544 249.055C136.103 249.055 135.162 250.074 135.162 251.621V257H133.633ZM147.309 257V249.116H146.034V247.859H147.309V246.84C147.309 245.082 148.126 244.247 149.813 244.247C150.156 244.247 150.525 244.282 150.745 244.317V245.557C150.561 245.53 150.306 245.504 150.051 245.504C149.225 245.504 148.829 245.943 148.829 246.849V247.859H150.701V249.116H148.838V257H147.309ZM155.632 257.158C153.101 257.158 151.396 255.339 151.396 252.43C151.396 249.512 153.101 247.701 155.632 247.701C158.154 247.701 159.859 249.512 159.859 252.43C159.859 255.339 158.154 257.158 155.632 257.158ZM155.632 255.813C157.249 255.813 158.304 254.583 158.304 252.43C158.304 250.276 157.249 249.046 155.632 249.046C154.015 249.046 152.951 250.276 152.951 252.43C152.951 254.583 154.015 255.813 155.632 255.813ZM161.406 257V247.859H162.848V249.354H162.883C163.182 248.343 164.025 247.701 165.098 247.701C165.361 247.701 165.59 247.745 165.713 247.763V249.248C165.59 249.204 165.265 249.16 164.896 249.16C163.709 249.16 162.936 250.013 162.936 251.305V257H161.406Z" fill="black"/>
<path d="M174.036 257.149C172.858 257.149 171.918 256.716 171.215 255.849C170.518 254.981 170.169 253.81 170.169 252.333C170.169 250.862 170.518 249.693 171.215 248.826C171.918 247.959 172.858 247.525 174.036 247.525C174.692 247.525 175.272 247.681 175.776 247.991C176.286 248.302 176.667 248.721 176.919 249.248H176.972V244.317H179.16V257H177.016V255.409H176.98C176.723 255.942 176.333 256.367 175.812 256.684C175.296 256.994 174.704 257.149 174.036 257.149ZM174.695 249.327C173.992 249.327 173.436 249.6 173.025 250.145C172.615 250.684 172.41 251.416 172.41 252.342C172.41 253.273 172.612 254.009 173.017 254.548C173.427 255.087 173.986 255.356 174.695 255.356C175.387 255.356 175.94 255.084 176.356 254.539C176.772 253.994 176.98 253.262 176.98 252.342C176.98 251.428 176.772 250.698 176.356 250.153C175.94 249.603 175.387 249.327 174.695 249.327ZM185.014 249.187C184.404 249.187 183.895 249.397 183.484 249.819C183.08 250.235 182.854 250.771 182.808 251.428H187.158C187.135 250.766 186.927 250.227 186.534 249.811C186.142 249.395 185.635 249.187 185.014 249.187ZM187.167 254.214H189.215C189.074 255.099 188.626 255.816 187.87 256.367C187.114 256.912 186.188 257.185 185.093 257.185C183.698 257.185 182.603 256.757 181.806 255.901C181.009 255.04 180.61 253.865 180.61 252.377C180.61 250.9 181.006 249.717 181.797 248.826C182.594 247.936 183.663 247.49 185.005 247.49C186.323 247.49 187.369 247.915 188.143 248.765C188.916 249.608 189.303 250.739 189.303 252.157V252.869H182.79V253.001C182.79 253.751 183.001 254.354 183.423 254.812C183.851 255.269 184.422 255.497 185.137 255.497C185.641 255.497 186.074 255.383 186.438 255.154C186.807 254.92 187.05 254.606 187.167 254.214ZM198.83 247.684L195.552 257H193.144L189.839 247.684H192.177L194.339 254.97H194.383L196.545 247.684H198.83ZM203.594 249.187C202.984 249.187 202.475 249.397 202.064 249.819C201.66 250.235 201.435 250.771 201.388 251.428H205.738C205.715 250.766 205.507 250.227 205.114 249.811C204.722 249.395 204.215 249.187 203.594 249.187ZM205.747 254.214H207.795C207.654 255.099 207.206 255.816 206.45 256.367C205.694 256.912 204.769 257.185 203.673 257.185C202.278 257.185 201.183 256.757 200.386 255.901C199.589 255.04 199.19 253.865 199.19 252.377C199.19 250.9 199.586 249.717 200.377 248.826C201.174 247.936 202.243 247.49 203.585 247.49C204.903 247.49 205.949 247.915 206.723 248.765C207.496 249.608 207.883 250.739 207.883 252.157V252.869H201.37V253.001C201.37 253.751 201.581 254.354 202.003 254.812C202.431 255.269 203.002 255.497 203.717 255.497C204.221 255.497 204.654 255.383 205.018 255.154C205.387 254.92 205.63 254.606 205.747 254.214ZM209.359 257V244.317H211.548V257H209.359ZM220.82 255.893C220.006 256.754 218.91 257.185 217.533 257.185C216.156 257.185 215.061 256.754 214.246 255.893C213.432 255.025 213.024 253.842 213.024 252.342C213.024 250.848 213.435 249.667 214.255 248.8C215.075 247.927 216.168 247.49 217.533 247.49C218.904 247.49 219.997 247.927 220.812 248.8C221.632 249.667 222.042 250.848 222.042 252.342C222.042 253.842 221.635 255.025 220.82 255.893ZM215.863 254.636C216.273 255.181 216.83 255.453 217.533 255.453C218.236 255.453 218.793 255.181 219.203 254.636C219.613 254.091 219.818 253.326 219.818 252.342C219.818 251.363 219.613 250.602 219.203 250.057C218.793 249.506 218.236 249.23 217.533 249.23C216.836 249.23 216.279 249.506 215.863 250.057C215.453 250.602 215.248 251.363 215.248 252.342C215.248 253.326 215.453 254.091 215.863 254.636ZM228.563 247.525C229.747 247.525 230.688 247.956 231.385 248.817C232.082 249.679 232.431 250.854 232.431 252.342C232.431 253.824 232.085 254.996 231.394 255.857C230.702 256.719 229.771 257.149 228.599 257.149C227.931 257.149 227.342 257 226.832 256.701C226.322 256.396 225.938 255.98 225.681 255.453H225.637V260.067H223.448V247.684H225.584V249.292H225.628C225.897 248.741 226.287 248.311 226.797 248C227.307 247.684 227.896 247.525 228.563 247.525ZM227.896 255.356C228.604 255.356 229.164 255.087 229.574 254.548C229.984 254.003 230.189 253.268 230.189 252.342C230.189 251.422 229.981 250.689 229.565 250.145C229.155 249.6 228.599 249.327 227.896 249.327C227.216 249.327 226.668 249.603 226.252 250.153C225.836 250.704 225.625 251.434 225.619 252.342C225.625 253.256 225.836 253.988 226.252 254.539C226.668 255.084 227.216 255.356 227.896 255.356ZM237.854 249.187C237.244 249.187 236.734 249.397 236.324 249.819C235.92 250.235 235.694 250.771 235.647 251.428H239.998C239.975 250.766 239.767 250.227 239.374 249.811C238.981 249.395 238.475 249.187 237.854 249.187ZM240.007 254.214H242.055C241.914 255.099 241.466 255.816 240.71 256.367C239.954 256.912 239.028 257.185 237.933 257.185C236.538 257.185 235.442 256.757 234.646 255.901C233.849 255.04 233.45 253.865 233.45 252.377C233.45 250.9 233.846 249.717 234.637 248.826C235.434 247.936 236.503 247.49 237.845 247.49C239.163 247.49 240.209 247.915 240.982 248.765C241.756 249.608 242.143 250.739 242.143 252.157V252.869H235.63V253.001C235.63 253.751 235.841 254.354 236.263 254.812C236.69 255.269 237.262 255.497 237.977 255.497C238.48 255.497 238.914 255.383 239.277 255.154C239.646 254.92 239.89 254.606 240.007 254.214ZM243.558 257V247.684H245.658V249.31H245.702C245.86 248.741 246.133 248.302 246.52 247.991C246.912 247.681 247.384 247.525 247.935 247.525C248.128 247.525 248.356 247.555 248.62 247.613V249.591C248.403 249.509 248.107 249.468 247.732 249.468C247.111 249.468 246.625 249.655 246.273 250.03C245.922 250.405 245.746 250.921 245.746 251.577V257H243.558ZM249.578 250.355C249.578 249.5 249.924 248.809 250.615 248.281C251.307 247.754 252.218 247.49 253.349 247.49C254.438 247.49 255.323 247.76 256.003 248.299C256.688 248.832 257.046 249.529 257.075 250.391H255.036C255.001 249.986 254.831 249.67 254.526 249.441C254.222 249.213 253.814 249.099 253.305 249.099C252.824 249.099 252.438 249.204 252.145 249.415C251.852 249.62 251.705 249.893 251.705 250.232C251.705 250.748 252.15 251.114 253.041 251.331L254.702 251.7C255.634 251.917 256.299 252.222 256.697 252.614C257.096 253.007 257.295 253.549 257.295 254.24C257.295 255.119 256.926 255.831 256.188 256.376C255.449 256.915 254.491 257.185 253.313 257.185C252.153 257.185 251.219 256.921 250.51 256.394C249.807 255.86 249.417 255.148 249.341 254.258H251.494C251.559 254.686 251.752 255.014 252.074 255.242C252.402 255.471 252.842 255.585 253.393 255.585C253.926 255.585 254.345 255.485 254.649 255.286C254.96 255.081 255.115 254.806 255.115 254.46C255.115 254.19 255.019 253.977 254.825 253.818C254.638 253.654 254.318 253.514 253.867 253.396L252.171 253.001C250.442 252.597 249.578 251.715 249.578 250.355Z" fill="url(#paint3_linear_3218_1802)"/>
<defs>
<linearGradient id="paint0_linear_3218_1802" x1="0" y1="148.5" x2="284" y2="148.5" gradientUnits="userSpaceOnUse">
<stop stop-color="#9E9E9E"/>
<stop offset="1" stop-color="#515151"/>
</linearGradient>
<linearGradient id="paint1_linear_3218_1802" x1="7" y1="209.691" x2="226" y2="209.691" gradientUnits="userSpaceOnUse">
<stop stop-color="#9D9D9D"/>
<stop offset="1" stop-color="#515151"/>
</linearGradient>
<linearGradient id="paint2_linear_3218_1802" x1="142" y1="30" x2="142" y2="109.691" gradientUnits="userSpaceOnUse">
<stop stop-color="#637AFA"/>
<stop offset="1" stop-color="#405CF6"/>
</linearGradient>
<linearGradient id="paint3_linear_3218_1802" x1="133.403" y1="250.5" x2="264" y2="250.5" gradientUnits="userSpaceOnUse">
<stop stop-color="#BFBFBF"/>
<stop offset="1" stop-color="#7F7F7F"/>
</linearGradient>
</defs>
</svg>
